<?xml version="1.0" encoding="utf-8"?>
<!-- Generator: Adobe Illustrator 18.0.0, SVG Export Plug-In . SVG Version: 6.00 Build 0)  -->
<!DOCTYPE svg PUBLIC "-//W3C//DTD SVG 1.1//EN" "http://www.w3.org/Graphics/SVG/1.1/DTD/svg11.dtd">
<svg version="1.1" id="Layer_1" xmlns="http://www.w3.org/2000/svg" xmlns:xlink="http://www.w3.org/1999/xlink" x="0px" y="0px"
	 viewBox="0 0 200 200" enable-background="new 0 0 200 200" xml:space="preserve">
<defs>
	<filter id="Adobe_OpacityMaskFilter" filterUnits="userSpaceOnUse" x="72" y="62.4" width="66.8" height="70">
		<feFlood  style="flood-color:white;flood-opacity:1" result="back"/>
		<feBlend  in="SourceGraphic" in2="back" mode="normal"/>
	</filter>
</defs>
<mask maskUnits="userSpaceOnUse" x="72" y="62.4" width="66.8" height="70" id="SVGID_1_">
	<g filter="url(#Adobe_OpacityMaskFilter)">
		<path d="M55.9,101.8c0,0,16.5,4.4,42,0s52.8-36.5,52.8-36.5s-2.5,27.5-34.5,39.9S63.7,105.1,55.9,101.8"/>
	</g>
</mask>
<g mask="url(#SVGID_1_)">
	<path d="M82.6,62.4l22.9,37.3l23.3-37.3h10v70H128v-28.7c0-4.2,0.1-8.2,0.3-11.9c0.2-3.8,0.5-7.5,0.9-11.3l-20.6,31.8h-6.6
		L81.8,80.6c0.4,3.7,0.7,7.5,0.8,11.2c0.1,3.7,0.2,7.7,0.2,11.9v28.7H72v-70H82.6z"/>
</g>
<path d="M138.8,77.6L151,65.3c0,0-4.1,16.5-12.3,24.8C138.7,85.3,138.8,77.6,138.8,77.6z"/>
<path d="M72,108.2c-10-3.1-16-6.5-16-6.5s13.9,1.9,16,2C72,105.8,72,105.5,72,108.2z"/>
<g>
</g>
<g>
</g>
<g>
</g>
<g>
</g>
<g>
</g>
<g>
</g>
</svg>
