<?xml version="1.0" encoding="utf-8"?>
<!-- Generator: Adobe Illustrator 18.0.0, SVG Export Plug-In . SVG Version: 6.00 Build 0)  -->
<!DOCTYPE svg PUBLIC "-//W3C//DTD SVG 1.1//EN" "http://www.w3.org/Graphics/SVG/1.1/DTD/svg11.dtd">
<svg version="1.1" xmlns="http://www.w3.org/2000/svg" xmlns:xlink="http://www.w3.org/1999/xlink" x="0px" y="0px"
	 viewBox="0 0 612 792" enable-background="new 0 0 612 792" xml:space="preserve">
<symbol  id="_x32_021_Glider" viewBox="-150.8 -120.5 301.5 241">
	<path id="Scratch_Glider_3_" fill="#FFFFFF" d="M0,120.5c0,0,6.5-5.8,10-18.3c2.6-8.8,2-24.3,2-24.3l138.8-29.8V19.8l-138,6
		c0,0-8.1-76.4-10.3-112c2.5-1,46.3-10.3,46.3-10.3l-0.5-15.8l-47-0.3c0,0-1.3-8-1.3-8l-1.3,8l-47,0.3l-0.5,15.8
		c0,0,43.8,9.3,46.3,10.3c-2.1,35.6-10.3,112-10.3,112l-138-6v28.5L-12,78c0,0-0.6,15.5,2,24.3C-6.5,114.8,0,120.5,0,120.5z"/>
</symbol>
<symbol  id="FINCH" viewBox="-351 -159.3 702 318.5">
	<polygon fill="#FFFFFF" stroke="#FFFFFF" stroke-width="2" stroke-miterlimit="10" points="50,-141.8 -50,-141.8 -50,158.3 
		50,158.3 	"/>
	<polygon fill="none" stroke="#FFFFFF" stroke-width="2" stroke-miterlimit="10" points="350,148.3 50,148.3 50,158.3 350,158.3 	
		"/>
	<polygon fill="none" stroke="#FFFFFF" stroke-width="2" stroke-miterlimit="10" points="-50,148.3 -350,148.3 -350,158.3 
		-50,158.3 	"/>
	<path fill="none" stroke="#FFFFFF" stroke-width="2" stroke-miterlimit="10" d="M42.5-141.8v-4.5c0-6.6-5.4-12-12-12h-61
		c-6.6,0-12,5.4-12,12v4.5"/>
	<path fill="none" stroke="#FFFFFF" stroke-width="2" stroke-miterlimit="10" d="M-42.5-141.8"/>
	<path fill="none" stroke="#FFFFFF" stroke-width="2" stroke-miterlimit="10" d="M42.5-141.8"/>
</symbol>
<symbol  id="HAB_Vehicle" viewBox="-112.4 -309 224.9 798.5">
	<path fill="#FFFFFF" d="M112.3,382.2C112.3,441.5,62,489.5,0,489.5s-112.3-48.1-112.3-107.3c0,0-7.8-57.6,112.3-137
		C120.1,324.5,112.3,382.2,112.3,382.2z"/>
	<polygon fill="#FFFFFF" points="46.1,-238.2 46.1,-309 -46.1,-309 -46.1,-238.2 -23.9,-238.2 -23.9,-205 23.9,-205 23.9,-238.2 	
		"/>
	<polyline fill="none" stroke="#FFFFFF" stroke-width="2" stroke-miterlimit="10" points="0,-76.5 0,-149.7 23.9,-205 -23.9,-205 
		0,-149.7 	"/>
	<line fill="none" stroke="#FFFFFF" stroke-width="2" stroke-miterlimit="10" x1="0" y1="245.2" x2="0" y2="134.6"/>
	<polygon fill="#FFFFFF" stroke="#FFFFFF" stroke-miterlimit="10" points="0,-76.5 -27.8,-48.7 0,-20.9 27.8,-48.7 	"/>
	<path fill="#FFFFFF" stroke="#FFFFFF" stroke-miterlimit="10" d="M4.8,94.1c0-22.4-2.1-40.5-4.8-40.5s-4.8,18.1-4.8,40.5
		s2.1,40.5,4.8,40.5S4.8,116.5,4.8,94.1z"/>
	<line fill="none" stroke="#FFFFFF" stroke-width="2" stroke-miterlimit="10" x1="0" y1="53.6" x2="0" y2="-20.9"/>
</symbol>
<symbol  id="HERON" viewBox="-183.2 -151 366.5 302">
	<polygon fill="#FFFFFF" stroke="#FFFFFF" stroke-width="2" stroke-miterlimit="10" points="50.1,-150 -49.9,-150 -49.9,150 
		50.1,150 	"/>
	<g>
		<path fill="none" stroke="#FFFFFF" stroke-width="4" stroke-miterlimit="10" d="M49.9,75.7h133.3H49.9z"/>
		<path fill="none" stroke="#FFFFFF" stroke-width="4" stroke-miterlimit="10" d="M151.1,109.8h13.9c4.7,0,8.5-3.8,8.5-8.5V50.1
			c0-4.7-3.8-8.5-8.5-8.5h-13.9c-4.7,0-8.5,3.8-8.5,8.5v51.2C142.6,105.9,146.5,109.8,151.1,109.8z"/>
		<path fill="none" stroke="#FFFFFF" stroke-width="4" stroke-miterlimit="10" d="M106.1,109.8h13.9c4.7,0,8.5-3.8,8.5-8.5V50.1
			c0-4.7-3.8-8.5-8.5-8.5h-13.9c-4.7,0-8.5,3.8-8.5,8.5v51.2C97.6,105.9,101.5,109.8,106.1,109.8z"/>
	</g>
	<g>
		<path fill="none" stroke="#FFFFFF" stroke-width="4" stroke-miterlimit="10" d="M-49.9,75.7h-133.3H-49.9z"/>
		<path fill="none" stroke="#FFFFFF" stroke-width="4" stroke-miterlimit="10" d="M-151.1,41.6h-13.9c-4.7,0-8.5,3.8-8.5,8.5v51.2
			c0,4.7,3.8,8.5,8.5,8.5h13.9c4.7,0,8.5-3.8,8.5-8.5V50.1C-142.6,45.4-146.5,41.6-151.1,41.6z"/>
		<path fill="none" stroke="#FFFFFF" stroke-width="4" stroke-miterlimit="10" d="M-106.1,41.6h-13.9c-4.7,0-8.5,3.8-8.5,8.5v51.2
			c0,4.7,3.8,8.5,8.5,8.5h13.9c4.7,0,8.5-3.8,8.5-8.5V50.1C-97.6,45.4-101.5,41.6-106.1,41.6z"/>
	</g>
</symbol>
<symbol  id="Ryder" viewBox="-409.6 -689.5 819.3 1379.1">
	<path fill="#FFFFFF" d="M0,688.9c8.5,0,657.2,45.4,0-611.8C-657.2,734.3-8.5,688.9,0,688.9z"/>
	<path fill="#FFFFFF" d="M98.2-538.5H-98.2c-6.6,0-12,5.4-12,12v45c0,6.6,5.4,12,12,12H98.2c6.6,0,12-5.4,12-12v-45
		C110.2-533.1,104.8-538.5,98.2-538.5z"/>
	<polyline fill="none" stroke="#FFFFFF" stroke-width="3" stroke-miterlimit="10" points="0,77.1 0,-387 98.2,-469.5 0,-387 
		-98.2,-469.5 	"/>
	<polygon fill="none" stroke="#FFFFFF" stroke-miterlimit="10" points="264.2,-469.5 98.2,-469.5 98.2,-481.5 264.2,-481.5 	"/>
	<polygon fill="none" stroke="#FFFFFF" stroke-miterlimit="10" points="-98.2,-469.5 -264.2,-469.5 -264.2,-481.5 -98.2,-481.5 	"/>
	
		<use xlink:href="#TMotor_Propeller"  width="471.8" height="58.9" x="-235.9" y="-29.5" transform="matrix(0.2626 -0.2626 0.2626 0.2626 -260.7233 -474.6456)" overflow="visible"/>
	
		<use xlink:href="#TMotor_Propeller"  width="471.8" height="58.9" x="-235.9" y="-29.5" transform="matrix(0.2626 0.2626 0.2626 -0.2626 264.2444 -475.5282)" overflow="visible"/>
	<g>
		<polygon fill="#FFFFFF" points="236,-689.5 -277.7,-689.5 -277.7,-573.5 236,-573.5 		"/>
		<path fill="#FFFFFF" d="M-409.6-631.5c0,0,0-20.3,0-57.4c88.7-1,158.2,57.4,158.2,57.4s-69.5,58.4-158.2,57.4
			C-409.6-611.2-409.6-631.5-409.6-631.5z"/>
		<path fill="#FFFFFF" d="M236-631.5c0,0,0-20.5,0-57.9c145.8-1,173.7,53.9,173.7,57.9s-27.8,59-173.7,58
			C236-611,236-631.5,236-631.5z"/>
	</g>
	<polygon fill="#FFFFFF" points="-75.7,-538.5 -66.7,-538.5 -66.7,-573.5 -75.7,-573.5 	"/>
	<polygon fill="#FFFFFF" points="64.3,-538.5 73.3,-538.5 73.3,-573.5 64.3,-573.5 	"/>
</symbol>
<symbol  id="TMotor_Propeller" viewBox="-235.9 -29.5 471.8 58.9">
	<path fill="#FFFFFF" d="M0,12.5c-13,0-16.7-2.6-28.7-2.4s-27.9,13.9-45,19.3c-10.3,0-117.9-14.3-161.7-19.7
		c-2.6-10.6,4.7-17.2,18.7-21c87.2-2.6,126.2-8.3,188,1c21.3-0.2,16.3-2.3,28.7-2.3s16.7,2.5,28.7,2.3c12-0.2,27.9-13.9,45-19.3
		c10.3,0,117.9,14.3,161.7,19.7c2.6,10.6-4.7,17.2-18.7,21c-87.2,2.6-126.2,8.3-188-1C7.5,10.4,13,12.5,0,12.5z"/>
</symbol>
<g id="BG">
	<g>
		<linearGradient id="SVGID_1_" gradientUnits="userSpaceOnUse" x1="306" y1="792" x2="306" y2="-1.373814e-008">
			<stop  offset="0" style="stop-color:#51AFE2"/>
			<stop  offset="8.836854e-002" style="stop-color:#4586B4"/>
			<stop  offset="0.2042" style="stop-color:#375F8C"/>
			<stop  offset="0.3243" style="stop-color:#2A436E"/>
			<stop  offset="0.4469" style="stop-color:#1F2D59"/>
			<stop  offset="0.5728" style="stop-color:#171B4A"/>
			<stop  offset="0.7033" style="stop-color:#110B41"/>
			<stop  offset="0.8415" style="stop-color:#0D003B"/>
			<stop  offset="1" style="stop-color:#0B0039"/>
		</linearGradient>
		<rect fill="url(#SVGID_1_)" width="612" height="792"/>
	</g>
	<g>
		<linearGradient id="SVGID_2_" gradientUnits="userSpaceOnUse" x1="306" y1="792" x2="306" y2="-1.373792e-008">
			<stop  offset="0" style="stop-color:#51AFE2;stop-opacity:0.5"/>
			<stop  offset="8.836854e-002" style="stop-color:#4586B4;stop-opacity:0.5"/>
			<stop  offset="0.2042" style="stop-color:#375F8C;stop-opacity:0.5"/>
			<stop  offset="0.3243" style="stop-color:#2A436E;stop-opacity:0.5"/>
			<stop  offset="0.4469" style="stop-color:#1F2D59;stop-opacity:0.5"/>
			<stop  offset="0.5728" style="stop-color:#171B4A;stop-opacity:0.5"/>
			<stop  offset="0.7033" style="stop-color:#110B41;stop-opacity:0.5"/>
			<stop  offset="0.8415" style="stop-color:#0D003B;stop-opacity:0.5"/>
			<stop  offset="1" style="stop-color:#0B0039;stop-opacity:0.5"/>
		</linearGradient>
		<rect fill="url(#SVGID_2_)" stroke="#000000" stroke-miterlimit="10" width="612" height="792"/>
	</g>
	<g>
		<rect fill="none" stroke="#000000" stroke-miterlimit="10" width="612" height="792"/>
	</g>
</g>
<g id="Main">
	<g>
		<g>
			<path fill="#FFFFFF" d="M44.5,654.8c0.6,0,1.1,0.1,1.6,0.2c0.5,0.2,0.9,0.4,1.3,0.6c0.4,0.3,0.6,0.5,0.9,0.8l-1,1
				c-0.4-0.4-0.8-0.6-1.2-0.9c-0.4-0.2-0.9-0.3-1.5-0.3c-0.7,0-1.3,0.2-1.8,0.5c-0.5,0.3-1,0.7-1.3,1.3c-0.3,0.5-0.5,1.1-0.5,1.8
				c0,0.7,0.2,1.3,0.5,1.8c0.3,0.5,0.8,1,1.3,1.3c0.5,0.3,1.1,0.5,1.8,0.5c0.5,0,0.9-0.1,1.3-0.3c0.4-0.2,0.7-0.4,1-0.7
				s0.4-0.7,0.4-1.1c0,0,0-0.1,0-0.1h-2.8v-1.5h4.3c0,0.1,0,0.3,0,0.4c0,0.1,0,0.3,0,0.4c0,0.5-0.1,1-0.2,1.5
				c-0.2,0.5-0.4,0.9-0.7,1.3c-0.4,0.5-0.9,0.8-1.4,1.1c-0.6,0.3-1.2,0.4-2,0.4c-0.7,0-1.4-0.1-2-0.4c-0.6-0.3-1.2-0.6-1.6-1.1
				c-0.5-0.5-0.8-1-1.1-1.6c-0.3-0.6-0.4-1.3-0.4-2c0-0.7,0.1-1.4,0.4-2c0.3-0.6,0.6-1.1,1.1-1.6c0.5-0.5,1-0.8,1.6-1.1
				C43.1,654.9,43.8,654.8,44.5,654.8z"/>
			<path fill="#FFFFFF" d="M50.5,664.7v-10.4h1.4v10.4H50.5z"/>
			<path fill="#FFFFFF" d="M54.9,655.7c-0.3,0-0.6-0.1-0.7-0.3s-0.2-0.4-0.2-0.7c0-0.2,0.1-0.4,0.2-0.6c0.2-0.2,0.4-0.3,0.7-0.3
				c0.3,0,0.6,0.1,0.7,0.3c0.2,0.2,0.2,0.4,0.2,0.7c0,0.2-0.1,0.4-0.2,0.6C55.5,655.6,55.3,655.7,54.9,655.7z M55.7,664.7h-1.4v-7.3
				h1.4V664.7z"/>
			<path fill="#FFFFFF" d="M64.8,654.3v10.4h-1.4v-1c-0.2,0.3-0.5,0.6-1,0.8c-0.4,0.2-0.9,0.4-1.4,0.4c-0.7,0-1.3-0.2-1.8-0.5
				c-0.5-0.3-1-0.8-1.3-1.4c-0.3-0.6-0.5-1.2-0.5-2c0-0.7,0.2-1.4,0.5-2s0.7-1,1.2-1.4c0.5-0.3,1.1-0.5,1.8-0.5c0.5,0,1,0.1,1.4,0.3
				c0.4,0.2,0.8,0.5,1,0.8v-3.9H64.8z M61.1,663.6c0.4,0,0.8-0.1,1.2-0.3c0.3-0.2,0.6-0.5,0.8-0.9c0.2-0.4,0.3-0.8,0.3-1.3
				c0-0.5-0.1-0.9-0.3-1.3c-0.2-0.4-0.4-0.7-0.8-0.9c-0.3-0.2-0.7-0.3-1.2-0.3c-0.4,0-0.8,0.1-1.2,0.3c-0.3,0.2-0.6,0.5-0.8,0.9
				s-0.3,0.8-0.3,1.3c0,0.5,0.1,0.9,0.3,1.3c0.2,0.4,0.5,0.7,0.8,0.9C60.3,663.4,60.7,663.6,61.1,663.6z"/>
			<path fill="#FFFFFF" d="M73.1,663.7L73.1,663.7c-0.3,0.3-0.7,0.5-1.2,0.8c-0.5,0.2-1.1,0.3-1.6,0.3c-0.8,0-1.4-0.2-2-0.5
				c-0.6-0.3-1-0.8-1.4-1.3s-0.5-1.2-0.5-1.9c0-0.8,0.2-1.5,0.5-2.1c0.3-0.6,0.8-1,1.4-1.3c0.6-0.3,1.2-0.5,1.9-0.5
				c0.6,0,1.2,0.2,1.7,0.5c0.5,0.3,0.9,0.7,1.2,1.3c0.3,0.5,0.4,1.2,0.4,1.9l0,0.6h-5.6c0.1,0.7,0.4,1.2,0.8,1.6
				c0.5,0.4,1,0.6,1.8,0.6c0.5,0,0.9-0.1,1.2-0.3c0.3-0.2,0.6-0.4,0.8-0.6L73.1,663.7z M70.1,658.5c-0.6,0-1,0.1-1.4,0.4
				c-0.4,0.3-0.7,0.7-0.8,1.3h4.1v-0.1c0-0.3-0.1-0.6-0.3-0.8c-0.2-0.2-0.4-0.4-0.7-0.6C70.7,658.5,70.4,658.5,70.1,658.5z"/>
			<path fill="#FFFFFF" d="M79.1,658.9c-0.1,0-0.2-0.1-0.3-0.1c-0.1,0-0.3,0-0.4,0c-0.3,0-0.6,0.1-0.9,0.2c-0.3,0.2-0.5,0.4-0.7,0.7
				c-0.2,0.3-0.3,0.6-0.3,1v4.1H75v-7.3h1.5v1.4c0.2-0.4,0.5-0.8,0.9-1.1c0.4-0.3,0.9-0.4,1.3-0.4c0.3,0,0.6,0,0.8,0.1L79.1,658.9z"
				/>
			<path fill="#FFFFFF" d="M38.9,678.3c-0.2,0-0.4,0-0.7-0.1c-0.3-0.1-0.5-0.2-0.8-0.3c-0.3-0.1-0.5-0.2-0.8-0.3s-0.4-0.1-0.6-0.1
				c-0.1,0-0.3,0.1-0.4,0.2c-0.1,0.1-0.1,0.3-0.1,0.6h-1c0-0.6,0.1-1.1,0.4-1.4c0.3-0.4,0.7-0.6,1.3-0.6c0.2,0,0.4,0,0.7,0.1
				c0.3,0.1,0.5,0.2,0.8,0.3c0.3,0.1,0.5,0.2,0.8,0.3c0.2,0.1,0.4,0.1,0.6,0.1c0.2,0,0.3-0.1,0.4-0.2c0.1-0.1,0.1-0.3,0.1-0.5l1,0
				c0,0.5-0.1,1-0.4,1.3C39.8,678.2,39.4,678.3,38.9,678.3z"/>
			<path fill="#FFFFFF" d="M45.3,681.6c-0.8,0-1.4-0.2-2-0.7c-0.5-0.4-0.9-1-1.2-1.8c-0.3-0.8-0.4-1.6-0.4-2.6c0-1,0.1-1.8,0.4-2.6
				c0.3-0.8,0.7-1.4,1.2-1.8c0.5-0.4,1.2-0.7,2-0.7c0.8,0,1.5,0.2,2,0.7c0.5,0.4,0.9,1,1.2,1.8s0.4,1.6,0.4,2.6c0,1-0.1,1.8-0.4,2.6
				s-0.7,1.4-1.2,1.8C46.7,681.4,46,681.6,45.3,681.6z M45.3,680.2c0.7,0,1.2-0.3,1.6-1s0.6-1.5,0.6-2.7c0-1.2-0.2-2.1-0.6-2.7
				s-0.9-1-1.6-1c-0.7,0-1.2,0.3-1.6,1s-0.6,1.5-0.6,2.7c0,1.2,0.2,2.1,0.6,2.7S44.6,680.2,45.3,680.2z"/>
			<path fill="#FFFFFF" d="M51.1,681.6c-0.3,0-0.6-0.1-0.7-0.3c-0.2-0.2-0.2-0.4-0.2-0.8c0-0.3,0.1-0.5,0.2-0.7
				c0.2-0.2,0.4-0.3,0.7-0.3c0.3,0,0.6,0.1,0.7,0.3c0.2,0.2,0.2,0.4,0.2,0.8c0,0.3-0.1,0.5-0.2,0.7
				C51.7,681.5,51.4,681.6,51.1,681.6z"/>
			<path fill="#FFFFFF" d="M58.9,681.5h-4.7V680h1.6v-6.5l-1.4,0.7l-0.4-1.3l2.6-1.4h0.7v8.5h1.6V681.5z"/>
			<path fill="#FFFFFF" d="M64.6,681.5v-10.4h1.4v6.3l3.3-3.3h1.9l-3.4,3.2l3.5,4.1h-1.8l-2.7-3.2l-0.8,0.8v2.4H64.6z"/>
			<path fill="#FFFFFF" d="M76.3,674c0.6,0,1.1,0.1,1.5,0.4c0.4,0.3,0.6,0.7,0.8,1.1c0.1-0.2,0.3-0.5,0.6-0.7
				c0.3-0.2,0.5-0.4,0.9-0.6c0.3-0.2,0.7-0.2,1.1-0.2c0.6,0,1.1,0.1,1.5,0.4c0.4,0.3,0.6,0.6,0.7,1.1s0.2,1,0.2,1.5v4.4h-1.5v-4.3
				c0-0.5-0.1-1-0.3-1.3c-0.2-0.3-0.6-0.5-1.2-0.5c-0.5,0-1,0.2-1.3,0.5s-0.5,0.8-0.5,1.2v4.4h-1.5v-4.4c0-0.5-0.1-1-0.3-1.3
				c-0.2-0.3-0.6-0.5-1.1-0.5c-0.4,0-0.7,0.1-1,0.2c-0.3,0.2-0.5,0.4-0.7,0.6S74,676.7,74,677v4.4h-1.5v-7.3H74v1.2
				c0.2-0.3,0.5-0.6,0.9-0.9C75.4,674.1,75.8,674,76.3,674z"/>
			<path fill="#FFFFFF" d="M39.2,694.7c0-1.2,0.3-2.4,0.9-3.5c0.6-1.1,1.5-2,2.6-2.7l0.8,0.9c-1,0.7-1.7,1.5-2.2,2.5
				s-0.7,1.9-0.7,2.9c0,1,0.2,2,0.7,2.9s1.2,1.7,2.2,2.5l-0.8,0.9c-1.2-0.7-2.1-1.7-2.6-2.7C39.5,697.1,39.2,695.9,39.2,694.7z"/>
			<path fill="#FFFFFF" d="M51,696.8v1.5h-5.9l-0.5-1.1l3-3.4c0.4-0.4,0.7-0.9,1.1-1.3c0.3-0.4,0.5-0.9,0.5-1.3
				c0-0.5-0.1-0.8-0.4-1.1c-0.3-0.2-0.6-0.4-1.1-0.4c-0.2,0-0.5,0.1-0.7,0.2c-0.3,0.1-0.5,0.3-0.7,0.6c-0.2,0.3-0.4,0.6-0.6,1.1
				l-1.2-0.7c0.3-0.9,0.7-1.5,1.3-1.9s1.3-0.6,2.1-0.6c0.5,0,1,0.1,1.4,0.3c0.4,0.2,0.8,0.5,1,0.9s0.4,0.9,0.4,1.4
				c0,0.6-0.2,1.3-0.6,1.9s-0.9,1.3-1.4,1.9l-1.8,2H51z"/>
			<path fill="#FFFFFF" d="M55.7,698.4c-0.8,0-1.4-0.2-2-0.7c-0.5-0.4-0.9-1-1.2-1.8c-0.3-0.8-0.4-1.6-0.4-2.6c0-1,0.1-1.8,0.4-2.6
				c0.3-0.8,0.7-1.4,1.2-1.8c0.5-0.4,1.2-0.7,2-0.7c0.8,0,1.5,0.2,2,0.7c0.5,0.4,0.9,1,1.2,1.8s0.4,1.6,0.4,2.6c0,1-0.1,1.8-0.4,2.6
				s-0.7,1.4-1.2,1.8C57.1,698.2,56.5,698.4,55.7,698.4z M55.7,697c0.7,0,1.2-0.3,1.6-1s0.6-1.5,0.6-2.7c0-1.2-0.2-2.1-0.6-2.7
				s-0.9-1-1.6-1c-0.7,0-1.2,0.3-1.6,1s-0.6,1.5-0.6,2.7c0,1.2,0.2,2.1,0.6,2.7S55,697,55.7,697z"/>
			<path fill="#FFFFFF" d="M67.2,696.8v1.5h-5.9l-0.5-1.1l3-3.4c0.4-0.4,0.7-0.9,1.1-1.3c0.3-0.4,0.5-0.9,0.5-1.3
				c0-0.5-0.1-0.8-0.4-1.1c-0.3-0.2-0.6-0.4-1.1-0.4c-0.2,0-0.5,0.1-0.7,0.2c-0.3,0.1-0.5,0.3-0.7,0.6c-0.2,0.3-0.4,0.6-0.6,1.1
				l-1.2-0.7c0.3-0.9,0.7-1.5,1.3-1.9s1.3-0.6,2.1-0.6c0.5,0,1,0.1,1.4,0.3c0.4,0.2,0.8,0.5,1,0.9s0.4,0.9,0.4,1.4
				c0,0.6-0.2,1.3-0.6,1.9s-0.9,1.3-1.4,1.9l-1.8,2H67.2z"/>
			<path fill="#FFFFFF" d="M73.8,698.3h-4.7v-1.5h1.6v-6.5l-1.4,0.7l-0.4-1.3l2.6-1.4h0.7v8.5h1.6V698.3z"/>
			<path fill="#FFFFFF" d="M79.1,694.7c0,1.2-0.3,2.4-0.9,3.5s-1.5,2-2.6,2.7l-0.8-0.9c1-0.7,1.7-1.5,2.2-2.5
				c0.5-0.9,0.7-1.9,0.7-2.9c0-1-0.2-2-0.7-2.9c-0.5-0.9-1.2-1.7-2.2-2.5l0.8-0.9c1.2,0.7,2.1,1.7,2.6,2.7
				C78.9,692.3,79.1,693.4,79.1,694.7z"/>
		</g>
		
			<use xlink:href="#_x32_021_Glider"  width="301.5" height="241" x="-150.8" y="-120.5" transform="matrix(0.3002 0 0 -0.3002 59.1694 747.4944)" overflow="visible"/>
	</g>
	<g>
		<g>
			<path fill="#FFFFFF" d="M70.9,368.6v4.2h4.9v-4.2h1.5v9.8h-1.5v-4.2h-4.9v4.2h-1.5v-9.8H70.9z"/>
			<path fill="#FFFFFF" d="M80.6,369.5c-0.3,0-0.6-0.1-0.7-0.3s-0.2-0.4-0.2-0.7c0-0.2,0.1-0.4,0.2-0.6c0.2-0.2,0.4-0.3,0.7-0.3
				c0.3,0,0.6,0.1,0.7,0.3c0.2,0.2,0.2,0.4,0.2,0.7c0,0.2-0.1,0.4-0.2,0.6C81.2,369.4,81,369.5,80.6,369.5z M81.4,378.4h-1.4v-7.3
				h1.4V378.4z"/>
			<path fill="#FFFFFF" d="M84.6,379.6c0.3,0.2,0.6,0.4,1,0.5c0.4,0.1,0.8,0.2,1.2,0.2c0.8,0,1.3-0.2,1.7-0.6
				c0.4-0.4,0.6-0.9,0.6-1.7v-0.9c-0.1,0.2-0.3,0.4-0.6,0.6c-0.2,0.2-0.5,0.4-0.9,0.5c-0.3,0.1-0.7,0.2-1,0.2
				c-0.7,0-1.3-0.2-1.8-0.5c-0.6-0.3-1-0.8-1.3-1.4c-0.3-0.6-0.5-1.2-0.5-2c0-0.7,0.2-1.4,0.5-2c0.3-0.6,0.7-1,1.3-1.4
				c0.5-0.3,1.2-0.5,1.8-0.5c0.6,0,1.1,0.1,1.5,0.4s0.8,0.5,1,0.8v-1h1.4v6.9c0,0.9-0.2,1.6-0.5,2.1c-0.4,0.5-0.8,0.9-1.4,1.2
				s-1.2,0.4-1.9,0.4c-0.5,0-1-0.1-1.6-0.2c-0.5-0.2-0.9-0.4-1.3-0.6L84.6,379.6z M86.9,372.2c-0.4,0-0.8,0.1-1.2,0.3
				c-0.4,0.2-0.6,0.5-0.8,0.9s-0.3,0.8-0.3,1.3c0,0.5,0.1,0.9,0.3,1.3c0.2,0.4,0.5,0.7,0.8,0.9c0.3,0.2,0.7,0.3,1.2,0.3
				c0.5,0,0.9-0.1,1.2-0.3s0.6-0.5,0.8-0.9c0.2-0.4,0.3-0.8,0.3-1.3c0-0.5-0.1-0.9-0.3-1.3c-0.2-0.4-0.5-0.7-0.8-0.9
				C87.8,372.3,87.4,372.2,86.9,372.2z"/>
			<path fill="#FFFFFF" d="M96.5,370.9c0.7,0,1.2,0.1,1.5,0.4c0.4,0.3,0.6,0.6,0.8,1.1c0.1,0.5,0.2,1,0.2,1.5v4.5h-1.4V374
				c0-0.4,0-0.7-0.1-1s-0.3-0.5-0.5-0.7c-0.2-0.2-0.5-0.2-0.9-0.2c-0.4,0-0.7,0.1-1,0.2c-0.3,0.2-0.5,0.4-0.7,0.6
				c-0.2,0.3-0.3,0.6-0.3,0.9v4.5h-1.4V368h1.4v4.2c0.2-0.3,0.6-0.7,1-0.9C95.5,371,96,370.9,96.5,370.9z"/>
			<path fill="#FFFFFF" d="M111.7,378.4l-0.9-2.4h-4.1l-0.9,2.4h-1.5l3.8-9.8h1.5l3.8,9.8H111.7z M108,372.6l-0.7,2h3l-0.8-2
				c-0.1-0.3-0.2-0.7-0.4-1.1c-0.1-0.4-0.2-0.8-0.4-1.1c-0.1,0.4-0.3,0.8-0.4,1.2C108.3,371.9,108.1,372.2,108,372.6z"/>
			<path fill="#FFFFFF" d="M114.7,378.4V368h1.4v10.4H114.7z"/>
			<path fill="#FFFFFF" d="M120.5,378.4h-1.4v-6h-1.5v-1.4h1.5v-1.9h1.4v1.9h1.7v1.4h-1.7V378.4z"/>
			<path fill="#FFFFFF" d="M124.5,369.5c-0.3,0-0.6-0.1-0.7-0.3s-0.2-0.4-0.2-0.7c0-0.2,0.1-0.4,0.2-0.6c0.2-0.2,0.4-0.3,0.7-0.3
				c0.3,0,0.6,0.1,0.7,0.3c0.2,0.2,0.2,0.4,0.2,0.7c0,0.2-0.1,0.4-0.2,0.6C125.1,369.4,124.8,369.5,124.5,369.5z M125.2,378.4h-1.4
				v-7.3h1.4V378.4z"/>
			<path fill="#FFFFFF" d="M129.8,378.4h-1.4v-6h-1.5v-1.4h1.5v-1.9h1.4v1.9h1.7v1.4h-1.7V378.4z"/>
			<path fill="#FFFFFF" d="M137.8,375.5v-4.4h1.4v7.3h-1.4v-1.2c-0.2,0.3-0.5,0.7-0.9,0.9c-0.4,0.3-0.9,0.4-1.5,0.4
				c-0.8,0-1.4-0.3-1.9-0.8c-0.5-0.5-0.7-1.2-0.7-2.2v-4.5h1.4v4.1c0,0.4,0.1,0.7,0.2,1s0.3,0.6,0.6,0.8c0.3,0.2,0.6,0.3,1,0.3
				c0.5,0,0.9-0.2,1.3-0.5C137.6,376.5,137.8,376,137.8,375.5z"/>
			<path fill="#FFFFFF" d="M148.2,368v10.4h-1.4v-1c-0.2,0.3-0.5,0.6-1,0.8c-0.4,0.2-0.9,0.4-1.4,0.4c-0.7,0-1.3-0.2-1.8-0.5
				c-0.5-0.3-1-0.8-1.3-1.4c-0.3-0.6-0.5-1.2-0.5-2c0-0.7,0.2-1.4,0.5-2s0.7-1,1.2-1.4c0.5-0.3,1.1-0.5,1.8-0.5c0.5,0,1,0.1,1.4,0.3
				c0.4,0.2,0.8,0.5,1,0.8V368H148.2z M144.5,377.3c0.4,0,0.8-0.1,1.2-0.3c0.3-0.2,0.6-0.5,0.8-0.9c0.2-0.4,0.3-0.8,0.3-1.3
				c0-0.5-0.1-0.9-0.3-1.3c-0.2-0.4-0.4-0.7-0.8-0.9c-0.3-0.2-0.7-0.3-1.2-0.3c-0.4,0-0.8,0.1-1.2,0.3c-0.3,0.2-0.6,0.5-0.8,0.9
				s-0.3,0.8-0.3,1.3c0,0.5,0.1,0.9,0.3,1.3c0.2,0.4,0.5,0.7,0.8,0.9C143.7,377.2,144.1,377.3,144.5,377.3z"/>
			<path fill="#FFFFFF" d="M156.5,377.4L156.5,377.4c-0.3,0.3-0.7,0.5-1.2,0.8c-0.5,0.2-1.1,0.3-1.6,0.3c-0.8,0-1.4-0.2-2-0.5
				c-0.6-0.3-1-0.8-1.4-1.3s-0.5-1.2-0.5-1.9c0-0.8,0.2-1.5,0.5-2.1c0.3-0.6,0.8-1,1.4-1.3c0.6-0.3,1.2-0.5,1.9-0.5
				c0.6,0,1.2,0.2,1.7,0.5c0.5,0.3,0.9,0.7,1.2,1.3c0.3,0.5,0.4,1.2,0.4,1.9l0,0.6h-5.6c0.1,0.7,0.4,1.2,0.8,1.6
				c0.5,0.4,1,0.6,1.8,0.6c0.5,0,0.9-0.1,1.2-0.3c0.3-0.2,0.6-0.4,0.8-0.6L156.5,377.4z M153.5,372.2c-0.6,0-1,0.1-1.4,0.4
				c-0.4,0.3-0.7,0.7-0.8,1.3h4.1v-0.1c0-0.3-0.1-0.6-0.3-0.8c-0.2-0.2-0.4-0.4-0.7-0.6C154.1,372.3,153.8,372.2,153.5,372.2z"/>
			<path fill="#FFFFFF" d="M166.7,368.6c1,0,1.7,0.2,2.2,0.6c0.5,0.4,0.7,1,0.7,1.8c0,0.4-0.1,0.8-0.3,1.2c-0.2,0.3-0.5,0.6-0.9,0.8
				c0.3,0.1,0.6,0.3,0.9,0.5s0.5,0.5,0.7,0.8c0.2,0.3,0.3,0.7,0.3,1.2c0,0.6-0.1,1-0.3,1.4c-0.2,0.4-0.5,0.7-0.8,0.9s-0.7,0.4-1,0.5
				c-0.4,0.1-0.8,0.1-1.1,0.1h-4.2v-9.8H166.7z M166.5,370.1h-2.3v2.6h2.5c0.4,0,0.7-0.1,1-0.3c0.3-0.2,0.4-0.5,0.4-1
				c0-0.5-0.2-0.8-0.5-1C167.3,370.2,166.9,370.1,166.5,370.1z M166.7,374.1h-2.6v2.8h2.6c0.5,0,1-0.1,1.3-0.4
				c0.3-0.2,0.5-0.6,0.5-1.1c0-0.4-0.1-0.6-0.3-0.8c-0.2-0.2-0.4-0.3-0.7-0.4C167.3,374.2,167,374.1,166.7,374.1z"/>
			<path fill="#FFFFFF" d="M178.6,371.1v7.3h-1.5v-1.1c-0.2,0.3-0.6,0.6-1,0.9c-0.4,0.3-0.9,0.4-1.5,0.4c-0.6,0-1.2-0.2-1.7-0.5
				c-0.5-0.3-0.9-0.8-1.2-1.4c-0.3-0.6-0.4-1.2-0.4-2c0-0.7,0.2-1.4,0.5-2c0.3-0.6,0.7-1,1.3-1.3c0.5-0.3,1.2-0.5,1.8-0.5
				c0.5,0,1,0.1,1.4,0.3s0.7,0.5,0.9,0.8v-1H178.6z M175,377.2c0.4,0,0.8-0.1,1.2-0.3c0.3-0.2,0.6-0.5,0.8-0.9s0.3-0.8,0.3-1.3
				c0-0.5-0.1-0.9-0.3-1.3s-0.4-0.7-0.8-0.9c-0.3-0.2-0.7-0.3-1.2-0.3c-0.4,0-0.8,0.1-1.1,0.3s-0.6,0.5-0.8,0.9
				c-0.2,0.4-0.3,0.8-0.3,1.3c0,0.5,0.1,0.9,0.3,1.3c0.2,0.4,0.4,0.7,0.8,0.9C174.2,377.1,174.6,377.2,175,377.2z"/>
			<path fill="#FFFFFF" d="M180.7,378.4V368h1.4v10.4H180.7z"/>
			<path fill="#FFFFFF" d="M184.2,378.4V368h1.4v10.4H184.2z"/>
			<path fill="#FFFFFF" d="M194.6,374.7c0,0.7-0.2,1.4-0.5,2c-0.3,0.6-0.8,1-1.3,1.4c-0.6,0.3-1.2,0.5-1.9,0.5s-1.3-0.2-1.9-0.5
				c-0.6-0.3-1-0.8-1.4-1.4c-0.3-0.6-0.5-1.2-0.5-2c0-0.7,0.2-1.4,0.5-2c0.3-0.6,0.8-1,1.4-1.4c0.6-0.3,1.2-0.5,1.9-0.5
				s1.3,0.2,1.9,0.5c0.6,0.3,1,0.8,1.3,1.4C194.4,373.3,194.6,374,194.6,374.7z M193.1,374.7c0-0.5-0.1-0.9-0.3-1.3
				s-0.5-0.7-0.8-0.9c-0.3-0.2-0.7-0.3-1.2-0.3s-0.8,0.1-1.2,0.3s-0.6,0.5-0.8,0.9s-0.3,0.8-0.3,1.3c0,0.5,0.1,0.9,0.3,1.3
				s0.5,0.7,0.8,0.9s0.7,0.3,1.2,0.3s0.8-0.1,1.2-0.3c0.3-0.2,0.6-0.5,0.8-0.9S193.1,375.2,193.1,374.7z"/>
			<path fill="#FFFFFF" d="M203.2,374.7c0,0.7-0.2,1.4-0.5,2c-0.3,0.6-0.8,1-1.3,1.4c-0.6,0.3-1.2,0.5-1.9,0.5s-1.3-0.2-1.9-0.5
				c-0.6-0.3-1-0.8-1.4-1.4c-0.3-0.6-0.5-1.2-0.5-2c0-0.7,0.2-1.4,0.5-2c0.3-0.6,0.8-1,1.4-1.4c0.6-0.3,1.2-0.5,1.9-0.5
				s1.3,0.2,1.9,0.5c0.6,0.3,1,0.8,1.3,1.4C203,373.3,203.2,374,203.2,374.7z M201.7,374.7c0-0.5-0.1-0.9-0.3-1.3s-0.5-0.7-0.8-0.9
				c-0.3-0.2-0.7-0.3-1.2-0.3s-0.8,0.1-1.2,0.3s-0.6,0.5-0.8,0.9s-0.3,0.8-0.3,1.3c0,0.5,0.1,0.9,0.3,1.3s0.5,0.7,0.8,0.9
				s0.7,0.3,1.2,0.3s0.8-0.1,1.2-0.3c0.3-0.2,0.6-0.5,0.8-0.9S201.7,375.2,201.7,374.7z"/>
			<path fill="#FFFFFF" d="M208.6,370.9c0.7,0,1.2,0.1,1.5,0.4c0.4,0.3,0.6,0.6,0.8,1.1c0.1,0.5,0.2,1,0.2,1.5v4.5h-1.4V374
				c0-0.4,0-0.7-0.1-1s-0.3-0.5-0.5-0.7c-0.2-0.2-0.5-0.2-0.9-0.2c-0.4,0-0.7,0.1-1,0.2c-0.3,0.2-0.5,0.4-0.7,0.6
				c-0.2,0.3-0.3,0.6-0.3,0.9v4.5h-1.4v-7.3h1.4v1.2c0.2-0.3,0.6-0.7,1-0.9C207.6,371,208.1,370.9,208.6,370.9z"/>
			<path fill="#FFFFFF" d="M122,393.7v1.5h-5.9l-0.5-1.1l3-3.4c0.4-0.4,0.7-0.9,1.1-1.3c0.3-0.4,0.5-0.9,0.5-1.3
				c0-0.5-0.1-0.8-0.4-1.1c-0.3-0.2-0.6-0.4-1.1-0.4c-0.2,0-0.5,0.1-0.7,0.2c-0.3,0.1-0.5,0.3-0.7,0.6c-0.2,0.3-0.4,0.6-0.6,1.1
				l-1.2-0.7c0.3-0.9,0.7-1.5,1.3-1.9s1.3-0.6,2.1-0.6c0.5,0,1,0.1,1.4,0.3c0.4,0.2,0.8,0.5,1,0.9s0.4,0.9,0.4,1.4
				c0,0.6-0.2,1.3-0.6,1.9s-0.9,1.3-1.4,1.9l-1.8,2H122z"/>
			<path fill="#FFFFFF" d="M128.7,395.2H124v-1.5h1.6v-6.5l-1.4,0.7l-0.4-1.3l2.6-1.4h0.7v8.5h1.6V395.2z"/>
			<path fill="#FFFFFF" d="M131.1,395.4c-0.3,0-0.6-0.1-0.7-0.3c-0.2-0.2-0.2-0.4-0.2-0.8c0-0.3,0.1-0.5,0.2-0.7
				c0.2-0.2,0.4-0.3,0.7-0.3c0.3,0,0.6,0.1,0.7,0.3c0.2,0.2,0.2,0.4,0.2,0.8c0,0.3-0.1,0.5-0.2,0.7
				C131.7,395.2,131.4,395.4,131.1,395.4z"/>
			<path fill="#FFFFFF" d="M136.6,395.2c-0.6,0-1.2-0.1-1.7-0.4c-0.5-0.3-0.9-0.7-1.2-1.2c-0.3-0.5-0.5-1.1-0.5-1.8
				c0-0.4,0.1-0.9,0.3-1.4s0.4-1,0.6-1.5c0.3-0.5,0.5-1,0.8-1.4l1.3-2.2h1.5l0.1,0.1l-1.5,2.6c-0.1,0.2-0.3,0.4-0.4,0.6
				c0.2-0.1,0.4-0.1,0.6-0.2s0.4-0.1,0.6-0.1c0.6,0,1.1,0.1,1.5,0.4c0.5,0.3,0.8,0.7,1.1,1.2s0.4,1,0.4,1.6c0,0.7-0.1,1.3-0.4,1.8
				c-0.3,0.6-0.7,1-1.2,1.3C137.9,395,137.3,395.2,136.6,395.2z M136.6,393.8c0.3,0,0.6-0.1,0.9-0.2c0.3-0.2,0.5-0.4,0.7-0.7
				c0.2-0.3,0.3-0.7,0.3-1.1c0-0.3-0.1-0.6-0.2-0.9c-0.2-0.3-0.4-0.6-0.7-0.7c-0.3-0.2-0.6-0.3-1-0.3c-0.4,0-0.8,0.1-1.1,0.3
				s-0.5,0.4-0.7,0.7c-0.2,0.3-0.2,0.6-0.2,1c0,0.4,0.1,0.7,0.2,1c0.2,0.3,0.4,0.6,0.7,0.8C135.9,393.7,136.2,393.8,136.6,393.8z"/>
			<path fill="#FFFFFF" d="M145.4,395.2v-10.4h1.4v6.3l3.3-3.3h1.9l-3.4,3.2l3.5,4.1h-1.8l-2.7-3.2l-0.8,0.8v2.4H145.4z"/>
			<path fill="#FFFFFF" d="M157.1,387.7c0.6,0,1.1,0.1,1.5,0.4c0.4,0.3,0.6,0.7,0.8,1.1c0.1-0.2,0.3-0.5,0.6-0.7
				c0.3-0.2,0.5-0.4,0.9-0.6c0.3-0.2,0.7-0.2,1.1-0.2c0.6,0,1.1,0.1,1.5,0.4c0.4,0.3,0.6,0.6,0.7,1.1s0.2,1,0.2,1.5v4.4h-1.5v-4.3
				c0-0.5-0.1-1-0.3-1.3c-0.2-0.3-0.6-0.5-1.2-0.5c-0.5,0-1,0.2-1.3,0.5s-0.5,0.8-0.5,1.2v4.4h-1.5v-4.4c0-0.5-0.1-1-0.3-1.3
				c-0.2-0.3-0.6-0.5-1.1-0.5c-0.4,0-0.7,0.1-1,0.2c-0.3,0.2-0.5,0.4-0.7,0.6s-0.2,0.5-0.2,0.9v4.4h-1.5v-7.3h1.5v1.2
				c0.2-0.3,0.5-0.6,0.9-0.9C156.1,387.9,156.6,387.7,157.1,387.7z"/>
			<path fill="#FFFFFF" d="M119.7,408.4c0-1.2,0.3-2.4,0.9-3.5c0.6-1.1,1.5-2,2.6-2.7l0.8,0.9c-1,0.7-1.7,1.5-2.2,2.5
				s-0.7,1.9-0.7,2.9c0,1,0.2,2,0.7,2.9s1.2,1.7,2.2,2.5l-0.8,0.9c-1.2-0.7-2.1-1.7-2.6-2.7C120,410.8,119.7,409.6,119.7,408.4z"/>
			<path fill="#FFFFFF" d="M131.5,410.5v1.5h-5.9l-0.5-1.1l3-3.4c0.4-0.4,0.7-0.9,1.1-1.3c0.3-0.4,0.5-0.9,0.5-1.3
				c0-0.5-0.1-0.8-0.4-1.1c-0.3-0.2-0.6-0.4-1.1-0.4c-0.2,0-0.5,0.1-0.7,0.2c-0.3,0.1-0.5,0.3-0.7,0.6c-0.2,0.3-0.4,0.6-0.6,1.1
				l-1.2-0.7c0.3-0.9,0.7-1.5,1.3-1.9s1.3-0.6,2.1-0.6c0.5,0,1,0.1,1.4,0.3c0.4,0.2,0.8,0.5,1,0.9s0.4,0.9,0.4,1.4
				c0,0.6-0.2,1.3-0.6,1.9s-0.9,1.3-1.4,1.9l-1.8,2H131.5z"/>
			<path fill="#FFFFFF" d="M136.2,412.1c-0.8,0-1.4-0.2-2-0.7c-0.5-0.4-0.9-1-1.2-1.8c-0.3-0.8-0.4-1.6-0.4-2.6c0-1,0.1-1.8,0.4-2.6
				c0.3-0.8,0.7-1.4,1.2-1.8c0.5-0.4,1.2-0.7,2-0.7c0.8,0,1.5,0.2,2,0.7c0.5,0.4,0.9,1,1.2,1.8s0.4,1.6,0.4,2.6c0,1-0.1,1.8-0.4,2.6
				s-0.7,1.4-1.2,1.8C137.7,411.9,137,412.1,136.2,412.1z M136.2,410.8c0.7,0,1.2-0.3,1.6-1s0.6-1.5,0.6-2.7c0-1.2-0.2-2.1-0.6-2.7
				s-0.9-1-1.6-1c-0.7,0-1.2,0.3-1.6,1s-0.6,1.5-0.6,2.7c0,1.2,0.2,2.1,0.6,2.7S135.5,410.8,136.2,410.8z"/>
			<path fill="#FFFFFF" d="M147.7,410.5v1.5h-5.9l-0.5-1.1l3-3.4c0.4-0.4,0.7-0.9,1.1-1.3c0.3-0.4,0.5-0.9,0.5-1.3
				c0-0.5-0.1-0.8-0.4-1.1c-0.3-0.2-0.6-0.4-1.1-0.4c-0.2,0-0.5,0.1-0.7,0.2c-0.3,0.1-0.5,0.3-0.7,0.6c-0.2,0.3-0.4,0.6-0.6,1.1
				l-1.2-0.7c0.3-0.9,0.7-1.5,1.3-1.9s1.3-0.6,2.1-0.6c0.5,0,1,0.1,1.4,0.3c0.4,0.2,0.8,0.5,1,0.9s0.4,0.9,0.4,1.4
				c0,0.6-0.2,1.3-0.6,1.9s-0.9,1.3-1.4,1.9l-1.8,2H147.7z"/>
			<path fill="#FFFFFF" d="M155.4,410.5v1.5h-5.9l-0.5-1.1l3-3.4c0.4-0.4,0.7-0.9,1.1-1.3c0.3-0.4,0.5-0.9,0.5-1.3
				c0-0.5-0.1-0.8-0.4-1.1c-0.3-0.2-0.6-0.4-1.1-0.4c-0.2,0-0.5,0.1-0.7,0.2c-0.3,0.1-0.5,0.3-0.7,0.6c-0.2,0.3-0.4,0.6-0.6,1.1
				l-1.2-0.7c0.3-0.9,0.7-1.5,1.3-1.9s1.3-0.6,2.1-0.6c0.5,0,1,0.1,1.4,0.3c0.4,0.2,0.8,0.5,1,0.9s0.4,0.9,0.4,1.4
				c0,0.6-0.2,1.3-0.6,1.9s-0.9,1.3-1.4,1.9l-1.8,2H155.4z"/>
			<path fill="#FFFFFF" d="M160.3,408.4c0,1.2-0.3,2.4-0.9,3.5s-1.5,2-2.6,2.7l-0.8-0.9c1-0.7,1.7-1.5,2.2-2.5
				c0.5-0.9,0.7-1.9,0.7-2.9c0-1-0.2-2-0.7-2.9c-0.5-0.9-1.2-1.7-2.2-2.5l0.8-0.9c1.2,0.7,2.1,1.7,2.6,2.7
				C160.1,406,160.3,407.2,160.3,408.4z"/>
		</g>
		
			<use xlink:href="#HAB_Vehicle"  width="224.9" height="798.5" x="-112.4" y="-309" transform="matrix(0.289 0 0 -0.289 140.0361 563.7372)" overflow="visible"/>
	</g>
	<g>
		
			<use xlink:href="#FINCH"  width="702" height="318.5" x="-351" y="-159.3" transform="matrix(0.2473 0.1169 0.1169 -0.2473 465.7785 155.6582)" overflow="visible"/>
		<g>
			<path fill="#FFFFFF" d="M396.8,47c0.1,0.2,0.3,0.4,0.5,0.7c0.2,0.2,0.4,0.4,0.7,0.6c0.3,0.2,0.6,0.2,0.9,0.2
				c0.3,0,0.6-0.1,0.8-0.2c0.3-0.1,0.5-0.4,0.7-0.6c0.2-0.3,0.3-0.6,0.3-1c0-0.4-0.1-0.8-0.2-1c-0.2-0.3-0.4-0.4-0.6-0.5
				c-0.3-0.1-0.5-0.2-0.8-0.2c-0.3,0-0.6,0-0.9,0.1s-0.6,0.2-0.8,0.3l-0.4-1.1l2.6-2.9h-3.5v-1.4h5.6l0.3,0.6l-2.7,3
				c0.5,0,1,0.1,1.5,0.4c0.4,0.3,0.8,0.6,1.1,1.1c0.3,0.5,0.4,1,0.4,1.5c0,0.7-0.2,1.3-0.5,1.8c-0.3,0.5-0.7,0.9-1.3,1.2
				c-0.5,0.3-1.1,0.4-1.7,0.4c-0.6,0-1-0.1-1.4-0.3c-0.4-0.2-0.7-0.4-1-0.7c-0.3-0.3-0.6-0.7-0.8-1L396.8,47z"/>
			<path fill="#FFFFFF" d="M411.8,39.9v6c0,0.7-0.2,1.4-0.5,2c-0.3,0.6-0.8,1-1.4,1.4s-1.3,0.5-2,0.5c-0.8,0-1.4-0.2-2-0.5
				c-0.6-0.3-1.1-0.8-1.4-1.4c-0.3-0.6-0.5-1.2-0.5-2v-6h1.5v5.9c0,0.5,0.1,0.9,0.3,1.3s0.5,0.7,0.9,0.9c0.4,0.2,0.8,0.3,1.2,0.3
				c0.4,0,0.9-0.1,1.2-0.3c0.4-0.2,0.7-0.5,0.9-0.9s0.3-0.8,0.3-1.3v-5.9H411.8z"/>
			<path fill="#FFFFFF" d="M425.8,48.5c-0.2,0.2-0.5,0.4-0.8,0.6c-0.3,0.2-0.8,0.4-1.2,0.5c-0.5,0.1-0.9,0.2-1.4,0.2
				c-0.9,0-1.7-0.2-2.4-0.6c-0.7-0.4-1.3-1-1.7-1.8s-0.6-1.6-0.6-2.7c0-0.7,0.1-1.4,0.4-2s0.6-1.1,1.1-1.6c0.4-0.4,1-0.8,1.5-1
				c0.6-0.2,1.2-0.4,1.8-0.4c0.5,0,1,0.1,1.5,0.2s0.9,0.4,1.2,0.6c0.3,0.3,0.6,0.5,0.8,0.8l-1,1.1c-0.3-0.4-0.7-0.6-1.1-0.9
				c-0.4-0.2-0.9-0.3-1.4-0.3c-0.6,0-1.1,0.1-1.6,0.4c-0.5,0.3-0.9,0.7-1.2,1.2c-0.3,0.5-0.5,1.1-0.5,1.9c0,0.8,0.2,1.4,0.5,2
				c0.3,0.5,0.7,0.9,1.2,1.2c0.5,0.3,1.1,0.4,1.7,0.4c0.5,0,1-0.1,1.5-0.3s0.8-0.5,1-0.7L425.8,48.5z"/>
			<path fill="#FFFFFF" d="M432.5,46.8v-4.4h1.4v7.3h-1.4v-1.2c-0.2,0.3-0.5,0.7-0.9,0.9c-0.4,0.3-0.9,0.4-1.5,0.4
				c-0.8,0-1.4-0.3-1.9-0.8c-0.5-0.5-0.7-1.2-0.7-2.2v-4.5h1.4v4.1c0,0.4,0.1,0.7,0.2,1c0.1,0.3,0.3,0.6,0.6,0.8
				c0.3,0.2,0.6,0.3,1,0.3c0.5,0,0.9-0.2,1.3-0.5C432.3,47.8,432.5,47.3,432.5,46.8z"/>
			<path fill="#FFFFFF" d="M439.8,42.2c0.7,0,1.2,0.2,1.8,0.5c0.5,0.3,0.9,0.8,1.2,1.3s0.4,1.2,0.4,2c0,0.7-0.1,1.4-0.4,2
				c-0.3,0.6-0.7,1-1.2,1.4c-0.5,0.3-1.1,0.5-1.7,0.5c-0.5,0-1-0.1-1.4-0.3c-0.4-0.2-0.8-0.5-1-0.8v0.9H436V39.3h1.4v4.1
				c0.2-0.3,0.5-0.6,1-0.8C438.8,42.3,439.3,42.2,439.8,42.2z M439.6,43.5c-0.4,0-0.8,0.1-1.2,0.3s-0.6,0.5-0.8,0.9
				c-0.2,0.4-0.3,0.8-0.3,1.3c0,0.5,0.1,0.9,0.3,1.3s0.5,0.7,0.8,0.9c0.3,0.2,0.7,0.3,1.2,0.3s0.8-0.1,1.2-0.3
				c0.3-0.2,0.6-0.5,0.8-0.9s0.3-0.8,0.3-1.3c0-0.5-0.1-0.9-0.3-1.3c-0.2-0.4-0.5-0.7-0.8-0.9S440,43.5,439.6,43.5z"/>
			<path fill="#FFFFFF" d="M451.1,48.7L451.1,48.7c-0.3,0.3-0.7,0.5-1.2,0.8c-0.5,0.2-1.1,0.3-1.6,0.3c-0.8,0-1.4-0.2-2-0.5
				c-0.6-0.3-1-0.8-1.4-1.3c-0.3-0.6-0.5-1.2-0.5-1.9c0-0.8,0.2-1.5,0.5-2.1s0.8-1,1.4-1.3s1.2-0.5,1.9-0.5c0.6,0,1.2,0.2,1.7,0.5
				c0.5,0.3,0.9,0.7,1.2,1.3c0.3,0.5,0.4,1.2,0.4,1.9l0,0.6h-5.6c0.1,0.7,0.4,1.2,0.8,1.6s1,0.6,1.8,0.6c0.5,0,0.9-0.1,1.2-0.3
				s0.6-0.4,0.8-0.6L451.1,48.7z M448.1,43.5c-0.6,0-1,0.1-1.4,0.4s-0.7,0.7-0.8,1.3h4.1v-0.1c0-0.3-0.1-0.6-0.3-0.8
				c-0.2-0.2-0.4-0.4-0.7-0.6C448.7,43.6,448.4,43.5,448.1,43.5z"/>
			<path fill="#FFFFFF" d="M453.7,46.7c0.4,0.6,0.8,1,1.2,1.3s1,0.5,1.6,0.5c0.3,0,0.6-0.1,0.9-0.2c0.3-0.1,0.5-0.3,0.7-0.4
				c0.2-0.2,0.3-0.4,0.3-0.7c0-0.5-0.2-0.8-0.6-1.1c-0.4-0.3-1-0.5-1.7-0.6c-0.9-0.2-1.6-0.5-2.2-1c-0.5-0.5-0.8-1.1-0.8-2
				c0-0.6,0.2-1,0.5-1.5c0.3-0.4,0.7-0.7,1.2-1c0.5-0.2,1.1-0.3,1.7-0.3c0.8,0,1.4,0.1,2,0.4c0.6,0.3,1,0.7,1.3,1.3l-1.1,1
				c-0.3-0.4-0.6-0.8-1-1c-0.4-0.3-0.8-0.4-1.3-0.4c-0.5,0-0.9,0.1-1.3,0.4c-0.3,0.2-0.5,0.6-0.5,1c0,0.5,0.2,0.8,0.6,1
				c0.4,0.2,0.9,0.4,1.5,0.5c0.6,0.1,1.1,0.3,1.6,0.5c0.5,0.2,0.9,0.5,1.2,0.9c0.3,0.4,0.5,0.8,0.5,1.3c0,0.9-0.3,1.7-1,2.2
				s-1.5,0.8-2.6,0.8c-0.8,0-1.4-0.1-2.1-0.4c-0.6-0.3-1.2-0.8-1.6-1.5L453.7,46.7z"/>
			<path fill="#FFFFFF" d="M468.6,42.3v7.3h-1.5v-1.1c-0.2,0.3-0.6,0.6-1,0.9c-0.4,0.3-0.9,0.4-1.5,0.4c-0.6,0-1.2-0.2-1.7-0.5
				c-0.5-0.3-0.9-0.8-1.2-1.4c-0.3-0.6-0.4-1.2-0.4-2c0-0.7,0.2-1.4,0.5-2c0.3-0.6,0.7-1,1.3-1.3c0.5-0.3,1.2-0.5,1.8-0.5
				c0.5,0,1,0.1,1.4,0.3c0.4,0.2,0.7,0.5,0.9,0.8v-1H468.6z M464.9,48.5c0.4,0,0.8-0.1,1.2-0.3c0.3-0.2,0.6-0.5,0.8-0.9
				s0.3-0.8,0.3-1.3c0-0.5-0.1-0.9-0.3-1.3s-0.4-0.7-0.8-0.9c-0.3-0.2-0.7-0.3-1.2-0.3c-0.4,0-0.8,0.1-1.1,0.3s-0.6,0.5-0.8,0.9
				c-0.2,0.4-0.3,0.8-0.3,1.3c0,0.5,0.1,0.9,0.3,1.3c0.2,0.4,0.4,0.7,0.8,0.9C464.1,48.4,464.5,48.5,464.9,48.5z"/>
			<path fill="#FFFFFF" d="M473,49.7h-1.4v-6H470v-1.4h1.5v-1.9h1.4v1.9h1.7v1.4H473V49.7z"/>
			<path fill="#FFFFFF" d="M477.8,49.6c0,0.4-0.1,0.8-0.3,1.1c-0.2,0.3-0.4,0.6-0.7,0.9c-0.3,0.3-0.6,0.4-0.9,0.6l-0.5-0.6
				c0.3-0.2,0.6-0.4,0.8-0.6c0.2-0.2,0.3-0.5,0.3-0.6c0-0.1,0-0.3-0.1-0.4s-0.2-0.2-0.3-0.3c-0.1-0.1-0.2-0.2-0.3-0.3
				s-0.1-0.3-0.1-0.5c0-0.2,0.1-0.4,0.3-0.5c0.2-0.1,0.4-0.2,0.6-0.2c0.3,0,0.6,0.1,0.9,0.4C477.7,48.7,477.8,49.1,477.8,49.6z"/>
			<path fill="#FFFFFF" d="M483.7,39.9h6.2v1.5h-4.7v2.6h3.9v1.5h-3.9v2.8h4.7v1.5h-6.2V39.9z"/>
			<path fill="#FFFFFF" d="M498.7,42.3v7.3h-1.5v-1.1c-0.2,0.3-0.6,0.6-1,0.9c-0.4,0.3-0.9,0.4-1.5,0.4c-0.6,0-1.2-0.2-1.7-0.5
				c-0.5-0.3-0.9-0.8-1.2-1.4c-0.3-0.6-0.4-1.2-0.4-2c0-0.7,0.2-1.4,0.5-2c0.3-0.6,0.7-1,1.3-1.3c0.5-0.3,1.2-0.5,1.8-0.5
				c0.5,0,1,0.1,1.4,0.3c0.4,0.2,0.7,0.5,0.9,0.8v-1H498.7z M495.1,48.5c0.4,0,0.8-0.1,1.2-0.3c0.3-0.2,0.6-0.5,0.8-0.9
				s0.3-0.8,0.3-1.3c0-0.5-0.1-0.9-0.3-1.3s-0.4-0.7-0.8-0.9c-0.3-0.2-0.7-0.3-1.2-0.3c-0.4,0-0.8,0.1-1.1,0.3s-0.6,0.5-0.8,0.9
				c-0.2,0.4-0.3,0.8-0.3,1.3c0,0.5,0.1,0.9,0.3,1.3c0.2,0.4,0.4,0.7,0.8,0.9C494.3,48.4,494.7,48.5,495.1,48.5z"/>
			<path fill="#FFFFFF" d="M504.9,43.9c-0.1,0-0.2-0.1-0.3-0.1c-0.1,0-0.3,0-0.4,0c-0.3,0-0.6,0.1-0.9,0.2c-0.3,0.2-0.5,0.4-0.7,0.7
				c-0.2,0.3-0.3,0.6-0.3,1v4.1h-1.5v-7.3h1.5v1.4c0.2-0.4,0.5-0.8,0.9-1.1c0.4-0.3,0.9-0.4,1.3-0.4c0.3,0,0.6,0,0.8,0.1L504.9,43.9
				z"/>
			<path fill="#FFFFFF" d="M509,49.7h-1.4v-6h-1.5v-1.4h1.5v-1.9h1.4v1.9h1.7v1.4H509V49.7z"/>
			<path fill="#FFFFFF" d="M515.9,42.2c0.7,0,1.2,0.1,1.5,0.4s0.6,0.6,0.8,1.1s0.2,1,0.2,1.5v4.5H517v-4.4c0-0.4,0-0.7-0.1-1
				c-0.1-0.3-0.3-0.5-0.5-0.7c-0.2-0.2-0.5-0.2-0.9-0.2c-0.4,0-0.7,0.1-1,0.2c-0.3,0.2-0.5,0.4-0.7,0.6c-0.2,0.3-0.3,0.6-0.3,0.9
				v4.5H512V39.3h1.4v4.2c0.2-0.3,0.6-0.7,1-0.9C514.9,42.3,515.4,42.2,515.9,42.2z"/>
			<path fill="#FFFFFF" d="M529,49.7h-4.7v-1.4h1.6v-7h-1.6v-1.4h4.7v1.4h-1.6v7h1.6V49.7z"/>
			<path fill="#FFFFFF" d="M534.7,42.2c0.6,0,1.1,0.1,1.5,0.4c0.4,0.3,0.6,0.7,0.8,1.1c0.1-0.2,0.3-0.5,0.6-0.7
				c0.3-0.2,0.5-0.4,0.9-0.6c0.3-0.2,0.7-0.2,1.1-0.2c0.6,0,1.1,0.1,1.5,0.4c0.4,0.3,0.6,0.6,0.7,1.1s0.2,1,0.2,1.5v4.4h-1.5v-4.3
				c0-0.5-0.1-1-0.3-1.3c-0.2-0.3-0.6-0.5-1.2-0.5c-0.5,0-1,0.2-1.3,0.5c-0.4,0.3-0.5,0.8-0.5,1.2v4.4h-1.5v-4.4
				c0-0.5-0.1-1-0.3-1.3s-0.6-0.5-1.1-0.5c-0.4,0-0.7,0.1-1,0.2c-0.3,0.2-0.5,0.4-0.7,0.6c-0.2,0.3-0.2,0.5-0.2,0.9v4.4H531v-7.3
				h1.5v1.2c0.2-0.3,0.5-0.6,0.9-0.9C533.8,42.3,534.2,42.2,534.7,42.2z"/>
			<path fill="#FFFFFF" d="M550.7,42.3v7.3h-1.5v-1.1c-0.2,0.3-0.6,0.6-1,0.9s-0.9,0.4-1.5,0.4c-0.6,0-1.2-0.2-1.7-0.5
				c-0.5-0.3-0.9-0.8-1.2-1.4c-0.3-0.6-0.4-1.2-0.4-2c0-0.7,0.2-1.4,0.5-2s0.7-1,1.3-1.3c0.5-0.3,1.2-0.5,1.8-0.5
				c0.5,0,1,0.1,1.4,0.3c0.4,0.2,0.7,0.5,0.9,0.8v-1H550.7z M547.1,48.5c0.4,0,0.8-0.1,1.2-0.3c0.3-0.2,0.6-0.5,0.8-0.9
				s0.3-0.8,0.3-1.3c0-0.5-0.1-0.9-0.3-1.3s-0.4-0.7-0.8-0.9c-0.3-0.2-0.7-0.3-1.2-0.3c-0.4,0-0.8,0.1-1.1,0.3s-0.6,0.5-0.8,0.9
				s-0.3,0.8-0.3,1.3c0,0.5,0.1,0.9,0.3,1.3s0.4,0.7,0.8,0.9C546.3,48.4,546.7,48.5,547.1,48.5z"/>
			<path fill="#FFFFFF" d="M553.7,50.9c0.3,0.2,0.6,0.4,1,0.5c0.4,0.1,0.8,0.2,1.2,0.2c0.8,0,1.3-0.2,1.7-0.6
				c0.4-0.4,0.6-0.9,0.6-1.7v-0.9c-0.1,0.2-0.3,0.4-0.6,0.6c-0.2,0.2-0.5,0.4-0.9,0.5s-0.7,0.2-1,0.2c-0.7,0-1.3-0.2-1.8-0.5
				c-0.6-0.3-1-0.8-1.3-1.4c-0.3-0.6-0.5-1.2-0.5-2c0-0.7,0.2-1.4,0.5-2c0.3-0.6,0.7-1,1.3-1.4c0.5-0.3,1.2-0.5,1.8-0.5
				c0.6,0,1.1,0.1,1.5,0.4c0.4,0.2,0.8,0.5,1,0.8v-1h1.4v6.9c0,0.9-0.2,1.6-0.5,2.1s-0.8,0.9-1.4,1.2s-1.2,0.4-1.9,0.4
				c-0.5,0-1-0.1-1.6-0.2c-0.5-0.2-0.9-0.4-1.3-0.6L553.7,50.9z M556.1,43.5c-0.4,0-0.8,0.1-1.2,0.3c-0.4,0.2-0.6,0.5-0.8,0.9
				c-0.2,0.4-0.3,0.8-0.3,1.3c0,0.5,0.1,0.9,0.3,1.3c0.2,0.4,0.5,0.7,0.8,0.9c0.3,0.2,0.7,0.3,1.2,0.3c0.5,0,0.9-0.1,1.2-0.3
				c0.3-0.2,0.6-0.5,0.8-0.9c0.2-0.4,0.3-0.8,0.3-1.3c0-0.5-0.1-0.9-0.3-1.3c-0.2-0.4-0.5-0.7-0.8-0.9
				C557,43.6,556.6,43.5,556.1,43.5z"/>
			<path fill="#FFFFFF" d="M562.8,40.7c-0.3,0-0.6-0.1-0.7-0.3c-0.2-0.2-0.2-0.4-0.2-0.7c0-0.2,0.1-0.4,0.2-0.6
				c0.2-0.2,0.4-0.3,0.7-0.3s0.6,0.1,0.7,0.3c0.2,0.2,0.2,0.4,0.2,0.7c0,0.2-0.1,0.4-0.2,0.6C563.4,40.6,563.1,40.7,562.8,40.7z
				 M563.5,49.7h-1.4v-7.3h1.4V49.7z"/>
			<path fill="#FFFFFF" d="M569.6,42.2c0.7,0,1.2,0.1,1.5,0.4c0.4,0.3,0.6,0.6,0.8,1.1c0.1,0.5,0.2,1,0.2,1.5v4.5h-1.4v-4.4
				c0-0.4,0-0.7-0.1-1c-0.1-0.3-0.3-0.5-0.5-0.7c-0.2-0.2-0.5-0.2-0.9-0.2c-0.4,0-0.7,0.1-1,0.2c-0.3,0.2-0.5,0.4-0.7,0.6
				c-0.2,0.3-0.3,0.6-0.3,0.9v4.5h-1.4v-7.3h1.4v1.2c0.2-0.3,0.5-0.7,1-0.9C568.6,42.3,569,42.2,569.6,42.2z"/>
			<path fill="#FFFFFF" d="M575.1,50.9c0.3,0.2,0.6,0.4,1,0.5c0.4,0.1,0.8,0.2,1.2,0.2c0.8,0,1.3-0.2,1.7-0.6
				c0.4-0.4,0.6-0.9,0.6-1.7v-0.9c-0.1,0.2-0.3,0.4-0.6,0.6c-0.2,0.2-0.5,0.4-0.9,0.5s-0.7,0.2-1,0.2c-0.7,0-1.3-0.2-1.8-0.5
				c-0.6-0.3-1-0.8-1.3-1.4c-0.3-0.6-0.5-1.2-0.5-2c0-0.7,0.2-1.4,0.5-2c0.3-0.6,0.7-1,1.3-1.4c0.5-0.3,1.2-0.5,1.8-0.5
				c0.6,0,1.1,0.1,1.5,0.4c0.4,0.2,0.8,0.5,1,0.8v-1h1.4v6.9c0,0.9-0.2,1.6-0.5,2.1s-0.8,0.9-1.4,1.2s-1.2,0.4-1.9,0.4
				c-0.5,0-1-0.1-1.6-0.2c-0.5-0.2-0.9-0.4-1.3-0.6L575.1,50.9z M577.4,43.5c-0.4,0-0.8,0.1-1.2,0.3c-0.4,0.2-0.6,0.5-0.8,0.9
				c-0.2,0.4-0.3,0.8-0.3,1.3c0,0.5,0.1,0.9,0.3,1.3c0.2,0.4,0.5,0.7,0.8,0.9c0.3,0.2,0.7,0.3,1.2,0.3c0.5,0,0.9-0.1,1.2-0.3
				c0.3-0.2,0.6-0.5,0.8-0.9c0.2-0.4,0.3-0.8,0.3-1.3c0-0.5-0.1-0.9-0.3-1.3c-0.2-0.4-0.5-0.7-0.8-0.9
				C578.3,43.6,577.9,43.5,577.4,43.5z"/>
			<path fill="#FFFFFF" d="M467.7,66.6c-0.7,0-1.3-0.2-1.8-0.5c-0.5-0.3-0.9-0.7-1.2-1.2l0.8-0.9c0.3,0.4,0.7,0.7,1,0.9
				s0.7,0.3,1.2,0.3c0.4,0,0.7-0.1,1-0.3c0.3-0.2,0.6-0.4,0.7-0.7c0.2-0.3,0.3-0.6,0.3-1c0-0.4-0.1-0.7-0.3-1s-0.4-0.5-0.7-0.7
				s-0.6-0.3-1-0.3c-0.5,0-0.9,0.1-1.2,0.2s-0.6,0.3-0.8,0.4l-0.8-1.1l0.6-4.2h5.3v1.4h-4.1l-0.3,2.2c0.2-0.1,0.5-0.2,0.7-0.2
				c0.3-0.1,0.6-0.1,0.8-0.1c0.6,0,1.1,0.1,1.6,0.4c0.5,0.3,0.9,0.6,1.1,1.1s0.4,1.1,0.4,1.7c0,0.7-0.2,1.2-0.5,1.8
				c-0.3,0.5-0.7,0.9-1.3,1.2S468.4,66.6,467.7,66.6z"/>
			<path fill="#FFFFFF" d="M475.7,66.6c-0.7,0-1.3-0.2-1.8-0.5c-0.5-0.3-0.9-0.7-1.2-1.2l0.8-0.9c0.3,0.4,0.7,0.7,1,0.9
				s0.7,0.3,1.2,0.3c0.4,0,0.7-0.1,1-0.3c0.3-0.2,0.6-0.4,0.7-0.7c0.2-0.3,0.3-0.6,0.3-1c0-0.4-0.1-0.7-0.3-1s-0.4-0.5-0.7-0.7
				s-0.6-0.3-1-0.3c-0.5,0-0.9,0.1-1.2,0.2s-0.6,0.3-0.8,0.4l-0.8-1.1l0.6-4.2h5.3v1.4h-4.1l-0.3,2.2c0.2-0.1,0.5-0.2,0.7-0.2
				c0.3-0.1,0.6-0.1,0.8-0.1c0.6,0,1.1,0.1,1.6,0.4c0.5,0.3,0.9,0.6,1.1,1.1s0.4,1.1,0.4,1.7c0,0.7-0.2,1.2-0.5,1.8
				c-0.3,0.5-0.7,0.9-1.3,1.2S476.3,66.6,475.7,66.6z"/>
			<path fill="#FFFFFF" d="M484.3,66.6c-0.8,0-1.4-0.2-2-0.7c-0.5-0.4-0.9-1-1.2-1.8c-0.3-0.8-0.4-1.6-0.4-2.6c0-1,0.1-1.8,0.4-2.6
				c0.3-0.8,0.7-1.4,1.2-1.8c0.5-0.4,1.2-0.7,2-0.7c0.8,0,1.5,0.2,2,0.7s0.9,1,1.2,1.8s0.4,1.6,0.4,2.6c0,1-0.1,1.8-0.4,2.6
				s-0.7,1.4-1.2,1.8C485.7,66.4,485.1,66.6,484.3,66.6z M484.3,65.2c0.7,0,1.2-0.3,1.6-1s0.6-1.5,0.6-2.7c0-1.2-0.2-2.1-0.6-2.7
				s-0.9-1-1.6-1s-1.2,0.3-1.6,1s-0.6,1.5-0.6,2.7c0,1.2,0.2,2.1,0.6,2.7S483.6,65.2,484.3,65.2z"/>
			<path fill="#FFFFFF" d="M493.5,66.5V56.1h1.4v6.3l3.3-3.3h1.9l-3.4,3.2l3.5,4.1h-1.8l-2.7-3.2l-0.8,0.8v2.4H493.5z"/>
			<path fill="#FFFFFF" d="M505.2,59c0.6,0,1.1,0.1,1.5,0.4c0.4,0.3,0.6,0.7,0.8,1.1c0.1-0.2,0.3-0.5,0.6-0.7
				c0.3-0.2,0.5-0.4,0.9-0.6c0.3-0.2,0.7-0.2,1.1-0.2c0.6,0,1.1,0.1,1.5,0.4c0.4,0.3,0.6,0.6,0.7,1.1s0.2,1,0.2,1.5v4.4h-1.5v-4.3
				c0-0.5-0.1-1-0.3-1.3c-0.2-0.3-0.6-0.5-1.2-0.5c-0.5,0-1,0.2-1.3,0.5c-0.4,0.3-0.5,0.8-0.5,1.2v4.4h-1.5v-4.4
				c0-0.5-0.1-1-0.3-1.3s-0.6-0.5-1.1-0.5c-0.4,0-0.7,0.1-1,0.2c-0.3,0.2-0.5,0.4-0.7,0.6c-0.2,0.3-0.2,0.5-0.2,0.9v4.4h-1.5v-7.3
				h1.5v1.2c0.2-0.3,0.5-0.6,0.9-0.9C504.2,59.1,504.7,59,505.2,59z"/>
			<path fill="#FFFFFF" d="M460.6,79.7c0-1.2,0.3-2.4,0.9-3.5c0.6-1.1,1.5-2,2.6-2.7l0.8,0.9c-1,0.7-1.7,1.5-2.2,2.5
				c-0.5,0.9-0.7,1.9-0.7,2.9c0,1,0.2,2,0.7,2.9c0.5,0.9,1.2,1.7,2.2,2.5l-0.8,0.9c-1.2-0.7-2.1-1.7-2.6-2.7S460.6,80.9,460.6,79.7z
				"/>
			<path fill="#FFFFFF" d="M466.5,73.5h6.2v1.5h-4.7v2.6h3.9V79h-3.9v2.8h4.7v1.5h-6.2V73.5z"/>
			<path fill="#FFFFFF" d="M475.4,83.4c-0.3,0-0.6-0.1-0.7-0.3c-0.2-0.2-0.2-0.4-0.2-0.8c0-0.3,0.1-0.5,0.2-0.7
				c0.2-0.2,0.4-0.3,0.7-0.3c0.3,0,0.6,0.1,0.7,0.3c0.2,0.2,0.2,0.4,0.2,0.8c0,0.3-0.1,0.5-0.2,0.7
				C475.9,83.3,475.7,83.4,475.4,83.4z"/>
			<path fill="#FFFFFF" d="M488.1,81.8v1.5h-5.9l-0.5-1.1l3-3.4c0.4-0.4,0.7-0.9,1-1.3c0.3-0.4,0.5-0.9,0.5-1.3
				c0-0.5-0.1-0.8-0.4-1.1c-0.3-0.2-0.6-0.4-1.1-0.4c-0.2,0-0.5,0.1-0.7,0.2c-0.3,0.1-0.5,0.3-0.7,0.6c-0.2,0.3-0.4,0.6-0.6,1.1
				l-1.2-0.7c0.3-0.9,0.7-1.5,1.3-1.9c0.6-0.4,1.3-0.6,2.1-0.6c0.5,0,1,0.1,1.4,0.3c0.4,0.2,0.8,0.5,1,0.9s0.4,0.9,0.4,1.4
				c0,0.6-0.2,1.3-0.6,1.9c-0.4,0.6-0.9,1.3-1.4,1.9l-1.8,2H488.1z"/>
			<path fill="#FFFFFF" d="M492.8,83.4c-0.8,0-1.4-0.2-2-0.7c-0.5-0.4-0.9-1-1.2-1.8s-0.4-1.6-0.4-2.6c0-1,0.1-1.8,0.4-2.6
				s0.7-1.4,1.2-1.8c0.5-0.4,1.2-0.7,2-0.7c0.8,0,1.5,0.2,2,0.7c0.5,0.4,0.9,1,1.2,1.8s0.4,1.6,0.4,2.6c0,1-0.1,1.8-0.4,2.6
				s-0.7,1.4-1.2,1.8C494.2,83.2,493.6,83.4,492.8,83.4z M492.8,82c0.7,0,1.2-0.3,1.6-1s0.6-1.5,0.6-2.7c0-1.2-0.2-2.1-0.6-2.7
				s-0.9-1-1.6-1c-0.7,0-1.2,0.3-1.6,1s-0.6,1.5-0.6,2.7c0,1.2,0.2,2.1,0.6,2.7S492.1,82,492.8,82z"/>
			<path fill="#FFFFFF" d="M504.3,81.8v1.5h-5.9l-0.5-1.1l3-3.4c0.4-0.4,0.7-0.9,1.1-1.3c0.3-0.4,0.5-0.9,0.5-1.3
				c0-0.5-0.1-0.8-0.4-1.1c-0.3-0.2-0.6-0.4-1.1-0.4c-0.2,0-0.5,0.1-0.7,0.2c-0.3,0.1-0.5,0.3-0.7,0.6c-0.2,0.3-0.4,0.6-0.6,1.1
				l-1.2-0.7c0.3-0.9,0.7-1.5,1.3-1.9c0.6-0.4,1.3-0.6,2.1-0.6c0.5,0,1,0.1,1.4,0.3c0.4,0.2,0.8,0.5,1,0.9s0.4,0.9,0.4,1.4
				c0,0.6-0.2,1.3-0.6,1.9c-0.4,0.6-0.9,1.3-1.4,1.9l-1.8,2H504.3z"/>
			<path fill="#FFFFFF" d="M506.3,83.3l3.8-8.4h-4.6v-1.4h6.1l0.2,1l-3.9,8.8H506.3z"/>
			<path fill="#FFFFFF" d="M516.8,79.7c0,1.2-0.3,2.4-0.9,3.5c-0.6,1.1-1.5,2-2.6,2.7l-0.8-0.9c1-0.7,1.7-1.5,2.2-2.5
				c0.5-0.9,0.7-1.9,0.7-2.9c0-1-0.2-2-0.7-2.9c-0.5-0.9-1.2-1.7-2.2-2.5l0.8-0.9c1.2,0.7,2.1,1.7,2.6,2.7
				C516.6,77.3,516.8,78.4,516.8,79.7z"/>
		</g>
	</g>
	<g>
		
			<use xlink:href="#HERON"  width="366.5" height="302" x="-183.2" y="-151" transform="matrix(0.2505 -8.503179e-002 -8.503179e-002 -0.2505 210.2757 214.852)" overflow="visible"/>
		<g>
			<path fill="#FFFFFF" d="M120.3,122c0.1,0.2,0.3,0.4,0.5,0.7c0.2,0.2,0.4,0.4,0.7,0.6c0.3,0.2,0.6,0.2,0.9,0.2
				c0.3,0,0.6-0.1,0.8-0.2c0.3-0.1,0.5-0.4,0.7-0.6s0.3-0.6,0.3-1c0-0.4-0.1-0.8-0.2-1s-0.4-0.4-0.6-0.5s-0.5-0.2-0.8-0.2
				c-0.3,0-0.6,0-0.9,0.1c-0.3,0.1-0.6,0.2-0.8,0.3l-0.4-1.1l2.6-2.9h-3.5v-1.4h5.6l0.3,0.6l-2.7,3c0.5,0,1,0.1,1.5,0.4
				c0.4,0.3,0.8,0.6,1.1,1.1c0.3,0.5,0.4,1,0.4,1.5c0,0.7-0.2,1.3-0.5,1.8c-0.3,0.5-0.7,0.9-1.3,1.2s-1.1,0.4-1.7,0.4
				c-0.6,0-1-0.1-1.4-0.3c-0.4-0.2-0.7-0.4-1-0.7c-0.3-0.3-0.6-0.7-0.8-1.1L120.3,122z"/>
			<path fill="#FFFFFF" d="M135.4,114.9v6c0,0.7-0.2,1.4-0.5,2c-0.3,0.6-0.8,1-1.4,1.4c-0.6,0.3-1.3,0.5-2,0.5c-0.8,0-1.4-0.2-2-0.5
				c-0.6-0.3-1.1-0.8-1.4-1.4c-0.3-0.6-0.5-1.2-0.5-2v-6h1.5v5.9c0,0.5,0.1,0.9,0.3,1.3s0.5,0.7,0.9,0.9c0.4,0.2,0.8,0.3,1.2,0.3
				c0.4,0,0.9-0.1,1.2-0.3s0.7-0.5,0.9-0.9c0.2-0.4,0.3-0.8,0.3-1.3v-5.9H135.4z"/>
			<path fill="#FFFFFF" d="M149.4,123.5c-0.2,0.2-0.5,0.4-0.8,0.6c-0.4,0.2-0.8,0.4-1.2,0.5c-0.5,0.1-0.9,0.2-1.4,0.2
				c-0.9,0-1.7-0.2-2.4-0.6c-0.7-0.4-1.3-1-1.7-1.8c-0.4-0.8-0.6-1.6-0.6-2.7c0-0.7,0.1-1.4,0.4-2c0.3-0.6,0.6-1.1,1.1-1.6
				c0.4-0.4,1-0.8,1.5-1c0.6-0.2,1.2-0.4,1.8-0.4c0.5,0,1,0.1,1.5,0.2c0.5,0.2,0.9,0.4,1.2,0.6s0.6,0.5,0.8,0.8l-1,1
				c-0.3-0.4-0.7-0.6-1.1-0.9c-0.4-0.2-0.9-0.4-1.4-0.4c-0.6,0-1.1,0.1-1.6,0.4c-0.5,0.3-0.9,0.7-1.2,1.2c-0.3,0.5-0.5,1.1-0.5,1.9
				c0,0.8,0.2,1.4,0.5,2c0.3,0.5,0.7,0.9,1.2,1.2c0.5,0.3,1.1,0.4,1.7,0.4c0.6,0,1-0.1,1.5-0.3s0.8-0.5,1-0.7L149.4,123.5z"/>
			<path fill="#FFFFFF" d="M156.1,121.7v-4.4h1.4v7.4h-1.4v-1.2c-0.2,0.3-0.5,0.7-0.9,0.9c-0.4,0.3-0.9,0.4-1.5,0.4
				c-0.8,0-1.4-0.3-1.9-0.8c-0.5-0.5-0.7-1.2-0.7-2.2v-4.5h1.4v4.1c0,0.4,0.1,0.7,0.2,1s0.3,0.6,0.6,0.8c0.3,0.2,0.6,0.3,1,0.3
				c0.5,0,0.9-0.2,1.3-0.5C155.9,122.8,156.1,122.3,156.1,121.7z"/>
			<path fill="#FFFFFF" d="M163.4,117.2c0.7,0,1.2,0.2,1.8,0.5s0.9,0.8,1.2,1.3c0.3,0.6,0.4,1.2,0.4,2s-0.1,1.4-0.4,2
				c-0.3,0.6-0.7,1-1.2,1.4c-0.5,0.3-1.1,0.5-1.7,0.5c-0.5,0-1-0.1-1.4-0.3c-0.4-0.2-0.8-0.5-1-0.8v0.9h-1.4v-10.3h1.4v4.1
				c0.2-0.3,0.5-0.6,1-0.8S162.9,117.2,163.4,117.2z M163.2,118.5c-0.4,0-0.8,0.1-1.2,0.3c-0.3,0.2-0.6,0.5-0.8,0.9
				s-0.3,0.8-0.3,1.3c0,0.5,0.1,0.9,0.3,1.3s0.5,0.7,0.8,0.9c0.3,0.2,0.7,0.3,1.2,0.3c0.4,0,0.8-0.1,1.2-0.3
				c0.3-0.2,0.6-0.5,0.8-0.9s0.3-0.8,0.3-1.3c0-0.5-0.1-0.9-0.3-1.3s-0.5-0.7-0.8-0.9C164,118.6,163.6,118.5,163.2,118.5z"/>
			<path fill="#FFFFFF" d="M174.7,123.7L174.7,123.7c-0.3,0.3-0.7,0.5-1.2,0.8c-0.5,0.2-1.1,0.3-1.6,0.3c-0.8,0-1.4-0.2-2-0.5
				c-0.6-0.3-1-0.8-1.4-1.3c-0.3-0.6-0.5-1.2-0.5-1.9c0-0.8,0.2-1.5,0.5-2.1c0.3-0.6,0.8-1,1.4-1.3c0.6-0.3,1.2-0.5,1.9-0.5
				c0.6,0,1.2,0.2,1.7,0.5c0.5,0.3,0.9,0.7,1.2,1.3c0.3,0.5,0.4,1.2,0.4,1.9l0,0.6h-5.6c0.1,0.7,0.4,1.2,0.8,1.6
				c0.5,0.4,1,0.6,1.8,0.6c0.5,0,0.9-0.1,1.2-0.3c0.3-0.2,0.6-0.4,0.8-0.6L174.7,123.7z M171.7,118.5c-0.6,0-1,0.1-1.4,0.4
				c-0.4,0.3-0.7,0.7-0.8,1.3h4.1v-0.1c0-0.3-0.1-0.6-0.3-0.8s-0.4-0.4-0.7-0.6C172.3,118.6,172,118.5,171.7,118.5z"/>
			<path fill="#FFFFFF" d="M180.8,119.3c-0.3-0.3-0.6-0.5-0.9-0.6c-0.3-0.2-0.6-0.3-0.9-0.3c-0.2,0-0.4,0-0.6,0.1
				c-0.2,0-0.4,0.1-0.5,0.3s-0.2,0.3-0.2,0.6c0,0.3,0.2,0.6,0.5,0.7c0.3,0.1,0.7,0.3,1.1,0.4c0.4,0.1,0.8,0.2,1.1,0.4
				c0.4,0.2,0.7,0.4,0.9,0.7c0.2,0.3,0.4,0.7,0.4,1.2c0,0.5-0.1,0.8-0.4,1.2c-0.3,0.3-0.6,0.6-1,0.7c-0.4,0.2-0.8,0.3-1.3,0.3
				c-0.5,0-1.1-0.1-1.6-0.3c-0.5-0.2-1-0.5-1.3-1l1-0.8c0.3,0.3,0.5,0.5,0.9,0.7c0.3,0.2,0.7,0.2,1.2,0.2c0.2,0,0.4,0,0.5-0.1
				c0.2-0.1,0.3-0.2,0.5-0.3s0.2-0.3,0.2-0.6c0-0.2-0.1-0.4-0.2-0.5c-0.1-0.1-0.3-0.2-0.5-0.3c-0.2-0.1-0.5-0.2-0.7-0.2
				c-0.4-0.1-0.8-0.2-1.2-0.4c-0.4-0.2-0.7-0.4-1-0.7s-0.4-0.7-0.4-1.2c0-0.4,0.1-0.8,0.4-1.1c0.2-0.3,0.6-0.6,1-0.7
				c0.4-0.2,0.8-0.3,1.3-0.3c0.4,0,0.9,0.1,1.4,0.3c0.5,0.2,0.9,0.5,1.3,0.9L180.8,119.3z"/>
			<path fill="#FFFFFF" d="M190.1,117.3v7.4h-1.5v-1.1c-0.2,0.3-0.6,0.6-1,0.9c-0.4,0.3-0.9,0.4-1.5,0.4c-0.6,0-1.2-0.2-1.7-0.5
				c-0.5-0.3-0.9-0.8-1.2-1.4s-0.4-1.2-0.4-2s0.2-1.4,0.5-2c0.3-0.6,0.7-1,1.3-1.3c0.5-0.3,1.2-0.5,1.8-0.5c0.5,0,1,0.1,1.4,0.3
				s0.7,0.5,0.9,0.8v-1H190.1z M186.5,123.5c0.4,0,0.8-0.1,1.2-0.3s0.6-0.5,0.8-0.9s0.3-0.8,0.3-1.3c0-0.5-0.1-0.9-0.3-1.3
				c-0.2-0.4-0.4-0.7-0.8-0.9c-0.3-0.2-0.7-0.3-1.2-0.3c-0.4,0-0.8,0.1-1.1,0.3c-0.3,0.2-0.6,0.5-0.8,0.9c-0.2,0.4-0.3,0.8-0.3,1.3
				c0,0.5,0.1,0.9,0.3,1.3c0.2,0.4,0.4,0.7,0.8,0.9S186.1,123.5,186.5,123.5z"/>
			<path fill="#FFFFFF" d="M194.5,124.7h-1.4v-6h-1.5v-1.4h1.5v-1.9h1.4v1.9h1.7v1.4h-1.7V124.7z"/>
			<path fill="#FFFFFF" d="M199.3,124.6c0,0.4-0.1,0.8-0.3,1.1c-0.2,0.3-0.4,0.6-0.7,0.9c-0.3,0.3-0.6,0.4-0.9,0.6l-0.5-0.6
				c0.3-0.2,0.6-0.4,0.8-0.6c0.2-0.2,0.3-0.5,0.3-0.6c0-0.1,0-0.3-0.1-0.4s-0.2-0.2-0.3-0.3c-0.1-0.1-0.2-0.2-0.3-0.3
				c-0.1-0.1-0.1-0.3-0.1-0.5c0-0.2,0.1-0.4,0.3-0.5s0.4-0.2,0.6-0.2c0.3,0,0.6,0.1,0.9,0.4S199.3,124.1,199.3,124.6z"/>
			<path fill="#FFFFFF" d="M212.5,118c0,0.6-0.2,1.1-0.5,1.6c-0.3,0.5-0.8,0.9-1.4,1.1l2.3,3.9l-1.8,0L209,121h-2.2v3.7h-1.5v-9.8
				h4.2c0.5,0,1,0.1,1.5,0.4s0.9,0.6,1.2,1.1C212.4,116.8,212.5,117.4,212.5,118z M209.2,116.3h-2.4v3.2h2.8c0.4,0,0.8-0.2,1-0.5
				c0.2-0.3,0.4-0.7,0.4-1.1c0-0.5-0.2-0.9-0.5-1.2S209.7,116.3,209.2,116.3z"/>
			<path fill="#FFFFFF" d="M221.2,117.3v7.4h-1.5v-1.1c-0.2,0.3-0.6,0.6-1,0.9c-0.4,0.3-0.9,0.4-1.5,0.4c-0.6,0-1.2-0.2-1.7-0.5
				c-0.5-0.3-0.9-0.8-1.2-1.4s-0.4-1.2-0.4-2s0.2-1.4,0.5-2c0.3-0.6,0.7-1,1.3-1.3c0.5-0.3,1.2-0.5,1.8-0.5c0.5,0,1,0.1,1.4,0.3
				s0.7,0.5,0.9,0.8v-1H221.2z M217.6,123.5c0.4,0,0.8-0.1,1.2-0.3s0.6-0.5,0.8-0.9s0.3-0.8,0.3-1.3c0-0.5-0.1-0.9-0.3-1.3
				c-0.2-0.4-0.4-0.7-0.8-0.9c-0.3-0.2-0.7-0.3-1.2-0.3c-0.4,0-0.8,0.1-1.1,0.3c-0.3,0.2-0.6,0.5-0.8,0.9c-0.2,0.4-0.3,0.8-0.3,1.3
				c0,0.5,0.1,0.9,0.3,1.3c0.2,0.4,0.4,0.7,0.8,0.9S217.1,123.5,217.6,123.5z"/>
			<path fill="#FFFFFF" d="M230.1,114.3v10.4h-1.4v-1c-0.2,0.3-0.5,0.6-1,0.8s-0.9,0.4-1.4,0.4c-0.7,0-1.3-0.2-1.8-0.5
				c-0.5-0.3-1-0.8-1.3-1.4s-0.5-1.2-0.5-2c0-0.7,0.2-1.4,0.5-2c0.3-0.6,0.7-1,1.2-1.4c0.5-0.3,1.1-0.5,1.8-0.5c0.5,0,1,0.1,1.4,0.3
				c0.4,0.2,0.8,0.5,1,0.8v-3.9H230.1z M226.5,123.6c0.4,0,0.8-0.1,1.2-0.3c0.3-0.2,0.6-0.5,0.8-0.9c0.2-0.4,0.3-0.8,0.3-1.3
				c0-0.5-0.1-0.9-0.3-1.3c-0.2-0.4-0.4-0.7-0.8-0.9c-0.3-0.2-0.7-0.3-1.2-0.3c-0.4,0-0.8,0.1-1.2,0.3c-0.3,0.2-0.6,0.5-0.8,0.9
				s-0.3,0.8-0.3,1.3c0,0.5,0.1,0.9,0.3,1.3c0.2,0.4,0.5,0.7,0.8,0.9S226,123.6,226.5,123.6z"/>
			<path fill="#FFFFFF" d="M233.1,115.7c-0.3,0-0.6-0.1-0.7-0.3c-0.2-0.2-0.2-0.4-0.2-0.7c0-0.2,0.1-0.4,0.2-0.6s0.4-0.3,0.7-0.3
				c0.3,0,0.6,0.1,0.7,0.3c0.2,0.2,0.2,0.4,0.2,0.7c0,0.2-0.1,0.4-0.2,0.6C233.6,115.6,233.4,115.7,233.1,115.7z M233.8,124.7h-1.4
				v-7.4h1.4V124.7z"/>
			<path fill="#FFFFFF" d="M243,121c0,0.7-0.2,1.4-0.5,2c-0.3,0.6-0.8,1-1.3,1.4c-0.6,0.3-1.2,0.5-1.9,0.5s-1.3-0.2-1.9-0.5
				c-0.6-0.3-1-0.8-1.4-1.4c-0.3-0.6-0.5-1.2-0.5-2c0-0.7,0.2-1.4,0.5-2c0.3-0.6,0.8-1,1.4-1.4c0.6-0.3,1.2-0.5,1.9-0.5
				s1.3,0.2,1.9,0.5c0.6,0.3,1,0.8,1.3,1.4C242.9,119.6,243,120.2,243,121z M241.6,121c0-0.5-0.1-0.9-0.3-1.3
				c-0.2-0.4-0.5-0.7-0.8-0.9c-0.3-0.2-0.7-0.3-1.2-0.3s-0.8,0.1-1.2,0.3s-0.6,0.5-0.8,0.9c-0.2,0.4-0.3,0.8-0.3,1.3
				c0,0.5,0.1,0.9,0.3,1.3c0.2,0.4,0.5,0.7,0.8,0.9c0.4,0.2,0.7,0.3,1.2,0.3s0.8-0.1,1.2-0.3c0.3-0.2,0.6-0.5,0.8-0.9
				C241.5,121.9,241.6,121.5,241.6,121z"/>
			<path fill="#FFFFFF" d="M252.7,114.9c0.8,0,1.4,0.1,2,0.4c0.6,0.3,1.1,0.6,1.4,1.1c0.4,0.5,0.7,1,0.9,1.6
				c0.2,0.6,0.3,1.2,0.3,1.9c0,0.9-0.2,1.7-0.5,2.5c-0.3,0.7-0.9,1.3-1.5,1.8c-0.7,0.4-1.5,0.7-2.5,0.7h-3.8v-9.8H252.7z
				 M252.6,123.2c0.7,0,1.3-0.2,1.8-0.5c0.5-0.3,0.8-0.7,1-1.3c0.2-0.5,0.3-1.1,0.3-1.7c0-0.6-0.1-1.2-0.3-1.7
				c-0.2-0.5-0.6-0.9-1-1.3c-0.5-0.3-1.1-0.5-1.8-0.5h-2.3v6.9H252.6z"/>
			<path fill="#FFFFFF" d="M265.3,123.7L265.3,123.7c-0.3,0.3-0.7,0.5-1.2,0.8c-0.5,0.2-1.1,0.3-1.6,0.3c-0.8,0-1.4-0.2-2-0.5
				c-0.6-0.3-1-0.8-1.4-1.3c-0.3-0.6-0.5-1.2-0.5-1.9c0-0.8,0.2-1.5,0.5-2.1c0.3-0.6,0.8-1,1.4-1.3c0.6-0.3,1.2-0.5,1.9-0.5
				c0.6,0,1.2,0.2,1.7,0.5c0.5,0.3,0.9,0.7,1.2,1.3c0.3,0.5,0.4,1.2,0.4,1.9l0,0.6H260c0.1,0.7,0.4,1.2,0.8,1.6
				c0.5,0.4,1,0.6,1.8,0.6c0.5,0,0.9-0.1,1.2-0.3c0.3-0.2,0.6-0.4,0.8-0.6L265.3,123.7z M262.3,118.5c-0.6,0-1,0.1-1.4,0.4
				c-0.4,0.3-0.7,0.7-0.8,1.3h4.1v-0.1c0-0.3-0.1-0.6-0.3-0.8s-0.4-0.4-0.7-0.6C262.9,118.6,262.6,118.5,262.3,118.5z"/>
			<path fill="#FFFFFF" d="M270.9,117.2c0.6,0,1.1,0.1,1.5,0.4c0.4,0.3,0.6,0.7,0.8,1.1c0.1-0.2,0.3-0.5,0.6-0.7
				c0.3-0.2,0.5-0.4,0.9-0.6s0.7-0.2,1.1-0.2c0.6,0,1.1,0.1,1.5,0.4s0.6,0.6,0.7,1.1s0.2,1,0.2,1.5v4.4h-1.5v-4.3
				c0-0.5-0.1-1-0.3-1.3c-0.2-0.3-0.6-0.5-1.2-0.5c-0.5,0-1,0.2-1.3,0.5s-0.5,0.8-0.5,1.2v4.4h-1.5v-4.4c0-0.5-0.1-1-0.3-1.3
				c-0.2-0.3-0.6-0.5-1.1-0.5c-0.4,0-0.7,0.1-1,0.2c-0.3,0.2-0.5,0.4-0.7,0.6c-0.2,0.3-0.2,0.5-0.2,0.9v4.4h-1.5v-7.4h1.5v1.2
				c0.2-0.3,0.5-0.6,0.9-0.9C270,117.3,270.4,117.2,270.9,117.2z"/>
			<path fill="#FFFFFF" d="M287.1,121c0,0.7-0.2,1.4-0.5,2c-0.3,0.6-0.8,1-1.3,1.4c-0.6,0.3-1.2,0.5-1.9,0.5s-1.3-0.2-1.9-0.5
				c-0.6-0.3-1-0.8-1.4-1.4c-0.3-0.6-0.5-1.2-0.5-2c0-0.7,0.2-1.4,0.5-2c0.3-0.6,0.8-1,1.4-1.4c0.6-0.3,1.2-0.5,1.9-0.5
				s1.3,0.2,1.9,0.5c0.6,0.3,1,0.8,1.3,1.4C287,119.6,287.1,120.2,287.1,121z M285.7,121c0-0.5-0.1-0.9-0.3-1.3
				c-0.2-0.4-0.5-0.7-0.8-0.9c-0.3-0.2-0.7-0.3-1.2-0.3s-0.8,0.1-1.2,0.3s-0.6,0.5-0.8,0.9c-0.2,0.4-0.3,0.8-0.3,1.3
				c0,0.5,0.1,0.9,0.3,1.3c0.2,0.4,0.5,0.7,0.8,0.9c0.4,0.2,0.7,0.3,1.2,0.3s0.8-0.1,1.2-0.3c0.3-0.2,0.6-0.5,0.8-0.9
				C285.6,121.9,285.7,121.5,285.7,121z"/>
			<path fill="#FFFFFF" d="M183.3,141.5v-2.7h-3.9l-0.6-1.3l4.8-5.9h1.2v5.8h1.7v1.4h-1.7v2.7H183.3z M180.5,137.4h2.7v-3.3
				L180.5,137.4z"/>
			<path fill="#FFFFFF" d="M190.6,141.6c-0.7,0-1.3-0.2-1.8-0.5s-0.9-0.7-1.2-1.2l0.8-0.9c0.3,0.4,0.7,0.7,1,0.9
				c0.3,0.2,0.7,0.4,1.2,0.4c0.4,0,0.7-0.1,1-0.3s0.6-0.4,0.7-0.7c0.2-0.3,0.3-0.6,0.3-1c0-0.4-0.1-0.7-0.3-1s-0.4-0.5-0.7-0.7
				s-0.6-0.3-1-0.3c-0.5,0-0.9,0.1-1.2,0.2c-0.3,0.1-0.6,0.3-0.8,0.4l-0.8-1.1l0.6-4.2h5.3v1.4h-4.1l-0.3,2.2
				c0.2-0.1,0.5-0.2,0.7-0.2c0.3-0.1,0.6-0.1,0.8-0.1c0.6,0,1.1,0.1,1.6,0.4c0.5,0.3,0.9,0.6,1.1,1.1c0.3,0.5,0.4,1.1,0.4,1.7
				c0,0.7-0.2,1.2-0.5,1.8c-0.3,0.5-0.7,0.9-1.3,1.2C191.9,141.4,191.3,141.6,190.6,141.6z"/>
			<path fill="#FFFFFF" d="M199.2,141.6c-0.8,0-1.4-0.2-2-0.7c-0.5-0.4-0.9-1-1.2-1.8c-0.3-0.8-0.4-1.6-0.4-2.6s0.1-1.8,0.4-2.6
				c0.3-0.8,0.7-1.4,1.2-1.8c0.5-0.4,1.2-0.7,2-0.7c0.8,0,1.5,0.2,2,0.7c0.5,0.4,0.9,1,1.2,1.8s0.4,1.6,0.4,2.6s-0.1,1.8-0.4,2.6
				s-0.7,1.4-1.2,1.8C200.7,141.4,200,141.6,199.2,141.6z M199.2,140.2c0.7,0,1.2-0.3,1.6-1c0.4-0.6,0.6-1.5,0.6-2.7
				c0-1.2-0.2-2.1-0.6-2.7c-0.4-0.6-0.9-1-1.6-1c-0.7,0-1.2,0.3-1.6,1c-0.4,0.6-0.6,1.5-0.6,2.7c0,1.2,0.2,2.1,0.6,2.7
				C198,139.9,198.5,140.2,199.2,140.2z"/>
			<path fill="#FFFFFF" d="M208.4,141.5v-10.4h1.4v6.3l3.3-3.3h1.9l-3.4,3.2l3.5,4.1h-1.8l-2.7-3.2l-0.8,0.8v2.4H208.4z"/>
			<path fill="#FFFFFF" d="M220.1,134c0.6,0,1.1,0.1,1.5,0.4c0.4,0.3,0.6,0.7,0.8,1.1c0.1-0.2,0.3-0.5,0.6-0.7
				c0.3-0.2,0.5-0.4,0.9-0.6s0.7-0.2,1.1-0.2c0.6,0,1.1,0.1,1.5,0.4s0.6,0.6,0.7,1.1s0.2,1,0.2,1.5v4.4h-1.5v-4.3
				c0-0.5-0.1-1-0.3-1.3c-0.2-0.3-0.6-0.5-1.2-0.5c-0.5,0-1,0.2-1.3,0.5s-0.5,0.8-0.5,1.2v4.4h-1.5v-4.4c0-0.5-0.1-1-0.3-1.3
				c-0.2-0.3-0.6-0.5-1.1-0.5c-0.4,0-0.7,0.1-1,0.2c-0.3,0.2-0.5,0.4-0.7,0.6c-0.2,0.3-0.2,0.5-0.2,0.9v4.4h-1.5v-7.4h1.5v1.2
				c0.2-0.3,0.5-0.6,0.9-0.9C219.1,134.1,219.6,134,220.1,134z"/>
			<path fill="#FFFFFF" d="M175.3,154.7c0-1.2,0.3-2.4,0.9-3.5c0.6-1.1,1.5-2,2.6-2.7l0.8,0.9c-1,0.7-1.7,1.5-2.2,2.5
				s-0.7,1.9-0.7,2.9s0.2,2,0.7,2.9c0.5,0.9,1.2,1.7,2.2,2.5l-0.8,0.9c-1.2-0.7-2.1-1.7-2.6-2.7
				C175.6,157.1,175.3,155.9,175.3,154.7z"/>
			<path fill="#FFFFFF" d="M181.2,148.5h6.2v1.5h-4.7v2.6h3.9v1.5h-3.9v2.8h4.7v1.5h-6.2V148.5z"/>
			<path fill="#FFFFFF" d="M190,158.4c-0.3,0-0.6-0.1-0.7-0.3c-0.2-0.2-0.2-0.4-0.2-0.8c0-0.3,0.1-0.5,0.2-0.7
				c0.2-0.2,0.4-0.3,0.7-0.3c0.3,0,0.6,0.1,0.7,0.3c0.2,0.2,0.2,0.4,0.2,0.8c0,0.3-0.1,0.5-0.2,0.7
				C190.6,158.3,190.3,158.4,190,158.4z"/>
			<path fill="#FFFFFF" d="M202.8,156.8v1.5h-5.9l-0.5-1.1l3-3.4c0.4-0.4,0.7-0.9,1.1-1.3c0.3-0.4,0.5-0.9,0.5-1.3
				c0-0.5-0.1-0.8-0.4-1.1c-0.3-0.2-0.6-0.4-1.1-0.4c-0.2,0-0.5,0.1-0.7,0.2c-0.3,0.1-0.5,0.3-0.7,0.6c-0.2,0.3-0.4,0.6-0.6,1.1
				l-1.2-0.7c0.3-0.9,0.7-1.5,1.3-1.9s1.3-0.6,2.1-0.6c0.5,0,1,0.1,1.4,0.3c0.4,0.2,0.8,0.5,1,0.9c0.3,0.4,0.4,0.9,0.4,1.4
				c0,0.6-0.2,1.3-0.6,1.9c-0.4,0.6-0.9,1.3-1.4,1.9l-1.8,2H202.8z"/>
			<path fill="#FFFFFF" d="M207.4,158.4c-0.8,0-1.4-0.2-2-0.7c-0.5-0.4-0.9-1-1.2-1.8c-0.3-0.8-0.4-1.6-0.4-2.6s0.1-1.8,0.4-2.6
				c0.3-0.8,0.7-1.4,1.2-1.8c0.5-0.4,1.2-0.7,2-0.7c0.8,0,1.5,0.2,2,0.7c0.5,0.4,0.9,1,1.2,1.8s0.4,1.6,0.4,2.6s-0.1,1.8-0.4,2.6
				s-0.7,1.4-1.2,1.8C208.9,158.2,208.2,158.4,207.4,158.4z M207.4,157c0.7,0,1.2-0.3,1.6-1c0.4-0.6,0.6-1.5,0.6-2.7
				c0-1.2-0.2-2.1-0.6-2.7c-0.4-0.6-0.9-1-1.6-1c-0.7,0-1.2,0.3-1.6,1c-0.4,0.6-0.6,1.5-0.6,2.7c0,1.2,0.2,2.1,0.6,2.7
				C206.3,156.7,206.8,157,207.4,157z"/>
			<path fill="#FFFFFF" d="M218.9,156.8v1.5H213l-0.5-1.1l3-3.4c0.4-0.4,0.7-0.9,1.1-1.3c0.3-0.4,0.5-0.9,0.5-1.3
				c0-0.5-0.1-0.8-0.4-1.1c-0.3-0.2-0.6-0.4-1.1-0.4c-0.2,0-0.5,0.1-0.7,0.2c-0.3,0.1-0.5,0.3-0.7,0.6c-0.2,0.3-0.4,0.6-0.6,1.1
				l-1.2-0.7c0.3-0.9,0.7-1.5,1.3-1.9s1.3-0.6,2.1-0.6c0.5,0,1,0.1,1.4,0.3c0.4,0.2,0.8,0.5,1,0.9c0.3,0.4,0.4,0.9,0.4,1.4
				c0,0.6-0.2,1.3-0.6,1.9c-0.4,0.6-0.9,1.3-1.4,1.9l-1.8,2H218.9z"/>
			<path fill="#FFFFFF" d="M220.8,155.6c0.1,0.2,0.3,0.4,0.5,0.7c0.2,0.2,0.4,0.4,0.7,0.6c0.3,0.2,0.6,0.2,0.9,0.2
				c0.3,0,0.6-0.1,0.8-0.2c0.3-0.1,0.5-0.4,0.7-0.6s0.3-0.6,0.3-1c0-0.4-0.1-0.8-0.2-1s-0.4-0.4-0.6-0.5s-0.5-0.2-0.8-0.2
				c-0.3,0-0.6,0-0.9,0.1c-0.3,0.1-0.6,0.2-0.8,0.3l-0.4-1.1l2.6-2.9h-3.5v-1.4h5.6l0.3,0.6l-2.7,3c0.5,0,1,0.1,1.5,0.4
				c0.4,0.3,0.8,0.6,1.1,1.1c0.3,0.5,0.4,1,0.4,1.5c0,0.7-0.2,1.3-0.5,1.8c-0.3,0.5-0.7,0.9-1.3,1.2s-1.1,0.4-1.7,0.4
				c-0.6,0-1-0.1-1.4-0.3c-0.4-0.2-0.7-0.4-1-0.7c-0.3-0.3-0.6-0.7-0.8-1.1L220.8,155.6z"/>
			<path fill="#FFFFFF" d="M231.3,154.7c0,1.2-0.3,2.4-0.9,3.5s-1.5,2-2.6,2.7L227,160c1-0.7,1.7-1.5,2.2-2.5
				c0.5-0.9,0.7-1.9,0.7-2.9s-0.2-2-0.7-2.9c-0.5-0.9-1.2-1.7-2.2-2.5l0.8-0.9c1.2,0.7,2.1,1.7,2.6,2.7
				C231,152.3,231.3,153.4,231.3,154.7z"/>
		</g>
	</g>
	<g>
		
			<use xlink:href="#Ryder"  width="819.3" height="1379.1" x="-409.6" y="-689.5" transform="matrix(0.2654 0 0 -0.2654 376.7777 510.6667)" overflow="visible"/>
		<g>
			<path fill="#FFFFFF" d="M295.5,253.2c1,0,1.7,0.2,2.2,0.6s0.7,1,0.7,1.8c0,0.4-0.1,0.8-0.3,1.2c-0.2,0.3-0.5,0.6-0.9,0.8
				c0.3,0.1,0.6,0.3,0.9,0.5s0.5,0.5,0.7,0.8c0.2,0.3,0.3,0.7,0.3,1.2c0,0.6-0.1,1-0.3,1.4c-0.2,0.4-0.5,0.7-0.8,0.9s-0.7,0.4-1,0.5
				s-0.8,0.1-1.1,0.1h-4.2v-9.8H295.5z M295.2,254.7h-2.3v2.6h2.5c0.4,0,0.7-0.1,1-0.3c0.3-0.2,0.4-0.5,0.4-1c0-0.5-0.2-0.8-0.5-1
				C296.1,254.8,295.7,254.7,295.2,254.7z M295.5,258.7h-2.6v2.8h2.6c0.5,0,1-0.1,1.3-0.4s0.5-0.6,0.5-1.1c0-0.4-0.1-0.6-0.3-0.8
				c-0.2-0.2-0.4-0.3-0.7-0.4C296,258.8,295.7,258.7,295.5,258.7z"/>
			<path fill="#FFFFFF" d="M307.4,255.6v7.4h-1.5v-1.1c-0.2,0.3-0.6,0.6-1,0.9c-0.4,0.3-0.9,0.4-1.5,0.4c-0.6,0-1.2-0.2-1.7-0.5
				c-0.5-0.3-0.9-0.8-1.2-1.4c-0.3-0.6-0.4-1.2-0.4-2s0.2-1.4,0.5-2c0.3-0.6,0.7-1,1.3-1.3c0.5-0.3,1.2-0.5,1.8-0.5
				c0.5,0,1,0.1,1.4,0.3c0.4,0.2,0.7,0.5,0.9,0.8v-1H307.4z M303.7,261.8c0.4,0,0.8-0.1,1.2-0.3s0.6-0.5,0.8-0.9s0.3-0.8,0.3-1.3
				c0-0.5-0.1-0.9-0.3-1.3c-0.2-0.4-0.4-0.7-0.8-0.9c-0.3-0.2-0.7-0.3-1.2-0.3c-0.4,0-0.8,0.1-1.1,0.3c-0.3,0.2-0.6,0.5-0.8,0.9
				c-0.2,0.4-0.3,0.8-0.3,1.3c0,0.5,0.1,0.9,0.3,1.3c0.2,0.4,0.4,0.7,0.8,0.9S303.3,261.8,303.7,261.8z"/>
			<path fill="#FFFFFF" d="M309.4,263v-10.4h1.4V263H309.4z"/>
			<path fill="#FFFFFF" d="M312.9,263v-10.4h1.4V263H312.9z"/>
			<path fill="#FFFFFF" d="M323.3,259.3c0,0.7-0.2,1.4-0.5,2c-0.3,0.6-0.8,1-1.3,1.4c-0.6,0.3-1.2,0.5-1.9,0.5
				c-0.7,0-1.3-0.2-1.9-0.5c-0.6-0.3-1-0.8-1.4-1.4c-0.3-0.6-0.5-1.2-0.5-2c0-0.7,0.2-1.4,0.5-2c0.3-0.6,0.8-1,1.4-1.4
				c0.6-0.3,1.2-0.5,1.9-0.5c0.7,0,1.3,0.2,1.9,0.5c0.6,0.3,1,0.8,1.3,1.4C323.1,257.9,323.3,258.6,323.3,259.3z M321.8,259.3
				c0-0.5-0.1-0.9-0.3-1.3c-0.2-0.4-0.5-0.7-0.8-0.9c-0.3-0.2-0.7-0.3-1.2-0.3c-0.4,0-0.8,0.1-1.2,0.3c-0.3,0.2-0.6,0.5-0.8,0.9
				c-0.2,0.4-0.3,0.8-0.3,1.3c0,0.5,0.1,0.9,0.3,1.3c0.2,0.4,0.5,0.7,0.8,0.9c0.4,0.2,0.7,0.3,1.2,0.3c0.4,0,0.8-0.1,1.2-0.3
				c0.3-0.2,0.6-0.5,0.8-0.9C321.7,260.2,321.8,259.8,321.8,259.3z"/>
			<path fill="#FFFFFF" d="M331.9,259.3c0,0.7-0.2,1.4-0.5,2c-0.3,0.6-0.8,1-1.3,1.4c-0.6,0.3-1.2,0.5-1.9,0.5
				c-0.7,0-1.3-0.2-1.9-0.5c-0.6-0.3-1-0.8-1.4-1.4c-0.3-0.6-0.5-1.2-0.5-2c0-0.7,0.2-1.4,0.5-2c0.3-0.6,0.8-1,1.4-1.4
				c0.6-0.3,1.2-0.5,1.9-0.5c0.7,0,1.3,0.2,1.9,0.5c0.6,0.3,1,0.8,1.3,1.4C331.7,257.9,331.9,258.6,331.9,259.3z M330.4,259.3
				c0-0.5-0.1-0.9-0.3-1.3c-0.2-0.4-0.5-0.7-0.8-0.9c-0.3-0.2-0.7-0.3-1.2-0.3c-0.4,0-0.8,0.1-1.2,0.3c-0.3,0.2-0.6,0.5-0.8,0.9
				c-0.2,0.4-0.3,0.8-0.3,1.3c0,0.5,0.1,0.9,0.3,1.3c0.2,0.4,0.5,0.7,0.8,0.9c0.4,0.2,0.7,0.3,1.2,0.3c0.4,0,0.8-0.1,1.2-0.3
				c0.3-0.2,0.6-0.5,0.8-0.9C330.4,260.2,330.5,259.8,330.4,259.3z"/>
			<path fill="#FFFFFF" d="M337.3,255.5c0.7,0,1.2,0.1,1.5,0.4c0.4,0.3,0.6,0.6,0.8,1.1c0.1,0.5,0.2,1,0.2,1.5v4.5h-1.4v-4.4
				c0-0.4,0-0.7-0.1-1s-0.3-0.5-0.5-0.7c-0.2-0.2-0.5-0.2-0.9-0.2c-0.4,0-0.7,0.1-1,0.2c-0.3,0.2-0.5,0.4-0.7,0.6s-0.3,0.6-0.3,0.9
				v4.5h-1.4v-7.4h1.4v1.2c0.2-0.3,0.6-0.7,1-0.9C336.3,255.6,336.8,255.5,337.3,255.5z"/>
			<path fill="#FFFFFF" d="M341.5,259.7v-1.4h4v1.4H341.5z"/>
			<path fill="#FFFFFF" d="M353.8,261.5v1.5h-6.1v-9.8h1.5v8.3H353.8z"/>
			<path fill="#FFFFFF" d="M362.3,255.6v7.4h-1.5v-1.1c-0.2,0.3-0.6,0.6-1,0.9c-0.4,0.3-0.9,0.4-1.5,0.4c-0.6,0-1.2-0.2-1.7-0.5
				c-0.5-0.3-0.9-0.8-1.2-1.4c-0.3-0.6-0.4-1.2-0.4-2s0.2-1.4,0.5-2c0.3-0.6,0.7-1,1.3-1.3c0.5-0.3,1.2-0.5,1.8-0.5
				c0.5,0,1,0.1,1.4,0.3c0.4,0.2,0.7,0.5,0.9,0.8v-1H362.3z M358.6,261.8c0.4,0,0.8-0.1,1.2-0.3s0.6-0.5,0.8-0.9s0.3-0.8,0.3-1.3
				c0-0.5-0.1-0.9-0.3-1.3c-0.2-0.4-0.4-0.7-0.8-0.9c-0.3-0.2-0.7-0.3-1.2-0.3c-0.4,0-0.8,0.1-1.1,0.3c-0.3,0.2-0.6,0.5-0.8,0.9
				c-0.2,0.4-0.3,0.8-0.3,1.3c0,0.5,0.1,0.9,0.3,1.3c0.2,0.4,0.4,0.7,0.8,0.9S358.2,261.8,358.6,261.8z"/>
			<path fill="#FFFFFF" d="M369.2,260.1v-4.4h1.4v7.4h-1.4v-1.2c-0.2,0.3-0.5,0.7-0.9,0.9c-0.4,0.3-0.9,0.4-1.5,0.4
				c-0.8,0-1.4-0.3-1.9-0.8c-0.5-0.5-0.7-1.2-0.7-2.2v-4.5h1.4v4.1c0,0.4,0.1,0.7,0.2,1c0.1,0.3,0.3,0.6,0.6,0.8
				c0.3,0.2,0.6,0.3,1,0.3c0.5,0,0.9-0.2,1.3-0.5C369,261.1,369.2,260.6,369.2,260.1z"/>
			<path fill="#FFFFFF" d="M376.5,255.5c0.7,0,1.2,0.1,1.5,0.4c0.4,0.3,0.6,0.6,0.8,1.1c0.1,0.5,0.2,1,0.2,1.5v4.5h-1.4v-4.4
				c0-0.4,0-0.7-0.1-1s-0.3-0.5-0.5-0.7c-0.2-0.2-0.5-0.2-0.9-0.2c-0.4,0-0.7,0.1-1,0.2c-0.3,0.2-0.5,0.4-0.7,0.6s-0.3,0.6-0.3,0.9
				v4.5h-1.4v-7.4h1.4v1.2c0.2-0.3,0.6-0.7,1-0.9C375.5,255.6,376,255.5,376.5,255.5z"/>
			<path fill="#FFFFFF" d="M381.9,259.3c0,0.5,0.1,0.9,0.3,1.3c0.2,0.4,0.5,0.7,0.9,0.9c0.4,0.2,0.7,0.3,1.2,0.3
				c0.5,0,0.9-0.1,1.2-0.4s0.6-0.5,0.8-0.8l0.8,1c-0.2,0.3-0.4,0.5-0.7,0.7c-0.3,0.2-0.7,0.4-1,0.5c-0.4,0.1-0.8,0.2-1.2,0.2
				c-0.7,0-1.3-0.2-1.8-0.5c-0.5-0.3-1-0.8-1.3-1.4c-0.3-0.6-0.5-1.2-0.5-1.9c0-0.7,0.2-1.4,0.5-2c0.3-0.6,0.7-1,1.3-1.4
				c0.5-0.3,1.1-0.5,1.8-0.5c0.7,0,1.3,0.1,1.8,0.4s0.9,0.6,1.2,1.1l-0.8,1c-0.2-0.3-0.5-0.6-0.9-0.8s-0.8-0.3-1.2-0.3
				c-0.4,0-0.8,0.1-1.2,0.3s-0.6,0.5-0.8,0.9C382,258.4,381.9,258.8,381.9,259.3z"/>
			<path fill="#FFFFFF" d="M392.3,255.5c0.7,0,1.2,0.1,1.5,0.4c0.4,0.3,0.6,0.6,0.8,1.1c0.1,0.5,0.2,1,0.2,1.5v4.5h-1.4v-4.4
				c0-0.4,0-0.7-0.1-1s-0.3-0.5-0.5-0.7c-0.2-0.2-0.5-0.2-0.9-0.2c-0.4,0-0.7,0.1-1,0.2c-0.3,0.2-0.5,0.4-0.7,0.6s-0.3,0.6-0.3,0.9
				v4.5h-1.4v-10.4h1.4v4.2c0.2-0.3,0.6-0.7,1-0.9C391.3,255.6,391.8,255.5,392.3,255.5z"/>
			<path fill="#FFFFFF" d="M403.1,262L403.1,262c-0.3,0.3-0.7,0.5-1.2,0.8c-0.5,0.2-1.1,0.3-1.6,0.3c-0.8,0-1.4-0.2-2-0.5
				c-0.6-0.3-1-0.8-1.4-1.3c-0.3-0.6-0.5-1.2-0.5-1.9c0-0.8,0.2-1.5,0.5-2.1c0.3-0.6,0.8-1,1.4-1.3c0.6-0.3,1.2-0.5,1.9-0.5
				c0.6,0,1.2,0.2,1.7,0.5s0.9,0.7,1.2,1.3c0.3,0.5,0.4,1.2,0.4,1.9l0,0.6h-5.6c0.1,0.7,0.4,1.2,0.8,1.6s1,0.6,1.8,0.6
				c0.5,0,0.9-0.1,1.2-0.3s0.6-0.4,0.8-0.6L403.1,262z M400.1,256.8c-0.6,0-1,0.1-1.4,0.4c-0.4,0.3-0.7,0.7-0.8,1.3h4.1v-0.1
				c0-0.3-0.1-0.6-0.3-0.8c-0.2-0.2-0.4-0.4-0.7-0.6S400.4,256.8,400.1,256.8z"/>
			<path fill="#FFFFFF" d="M411.9,252.6V263h-1.4v-1c-0.2,0.3-0.5,0.6-1,0.8s-0.9,0.4-1.4,0.4c-0.7,0-1.3-0.2-1.8-0.5
				c-0.5-0.3-1-0.8-1.3-1.4c-0.3-0.6-0.5-1.2-0.5-2c0-0.7,0.2-1.4,0.5-2c0.3-0.6,0.7-1,1.2-1.4c0.5-0.3,1.1-0.5,1.8-0.5
				c0.5,0,1,0.1,1.4,0.3c0.4,0.2,0.8,0.5,1,0.8v-3.9H411.9z M408.2,261.9c0.4,0,0.8-0.1,1.2-0.3s0.6-0.5,0.8-0.9
				c0.2-0.4,0.3-0.8,0.3-1.3c0-0.5-0.1-0.9-0.3-1.3c-0.2-0.4-0.4-0.7-0.8-0.9c-0.3-0.2-0.7-0.3-1.2-0.3c-0.4,0-0.8,0.1-1.2,0.3
				c-0.3,0.2-0.6,0.5-0.8,0.9c-0.2,0.4-0.3,0.8-0.3,1.3c0,0.5,0.1,0.9,0.3,1.3c0.2,0.4,0.5,0.7,0.8,0.9S407.8,261.9,408.2,261.9z"/>
			<path fill="#FFFFFF" d="M425.4,256.3c0,0.6-0.2,1.1-0.5,1.6c-0.4,0.5-0.8,0.9-1.4,1.1l2.3,3.9l-1.8,0l-2.1-3.7h-2.2v3.7h-1.5
				v-9.8h4.2c0.5,0,1,0.1,1.5,0.4c0.5,0.3,0.9,0.6,1.2,1.1C425.3,255.1,425.4,255.7,425.4,256.3z M422.1,254.7h-2.4v3.2h2.8
				c0.4,0,0.8-0.2,1-0.5c0.2-0.3,0.4-0.7,0.4-1.1c0-0.5-0.2-0.9-0.5-1.2C423,254.8,422.6,254.7,422.1,254.7z"/>
			<path fill="#FFFFFF" d="M434.3,259.3c0,0.7-0.2,1.4-0.5,2c-0.3,0.6-0.8,1-1.3,1.4c-0.6,0.3-1.2,0.5-1.9,0.5
				c-0.7,0-1.3-0.2-1.9-0.5c-0.6-0.3-1-0.8-1.4-1.4c-0.3-0.6-0.5-1.2-0.5-2c0-0.7,0.2-1.4,0.5-2c0.3-0.6,0.8-1,1.4-1.4
				c0.6-0.3,1.2-0.5,1.9-0.5c0.7,0,1.3,0.2,1.9,0.5c0.6,0.3,1,0.8,1.3,1.4C434.1,257.9,434.3,258.6,434.3,259.3z M432.8,259.3
				c0-0.5-0.1-0.9-0.3-1.3c-0.2-0.4-0.5-0.7-0.8-0.9c-0.3-0.2-0.7-0.3-1.2-0.3c-0.4,0-0.8,0.1-1.2,0.3c-0.3,0.2-0.6,0.5-0.8,0.9
				c-0.2,0.4-0.3,0.8-0.3,1.3c0,0.5,0.1,0.9,0.3,1.3c0.2,0.4,0.5,0.7,0.8,0.9c0.4,0.2,0.7,0.3,1.2,0.3c0.4,0,0.8-0.1,1.2-0.3
				c0.3-0.2,0.6-0.5,0.8-0.9C432.7,260.2,432.8,259.8,432.8,259.3z"/>
			<path fill="#FFFFFF" d="M436.8,259.3c0,0.5,0.1,0.9,0.3,1.3c0.2,0.4,0.5,0.7,0.9,0.9c0.4,0.2,0.7,0.3,1.2,0.3
				c0.5,0,0.9-0.1,1.2-0.4s0.6-0.5,0.8-0.8l0.8,1c-0.2,0.3-0.4,0.5-0.7,0.7c-0.3,0.2-0.7,0.4-1,0.5c-0.4,0.1-0.8,0.2-1.2,0.2
				c-0.7,0-1.3-0.2-1.8-0.5c-0.5-0.3-1-0.8-1.3-1.4c-0.3-0.6-0.5-1.2-0.5-1.9c0-0.7,0.2-1.4,0.5-2c0.3-0.6,0.7-1,1.3-1.4
				c0.5-0.3,1.1-0.5,1.8-0.5c0.7,0,1.3,0.1,1.8,0.4s0.9,0.6,1.2,1.1l-0.8,1c-0.2-0.3-0.5-0.6-0.9-0.8s-0.8-0.3-1.2-0.3
				c-0.4,0-0.8,0.1-1.2,0.3s-0.6,0.5-0.8,0.9C436.9,258.4,436.8,258.8,436.8,259.3z"/>
			<path fill="#FFFFFF" d="M443.3,263v-10.4h1.4v6.3l3.3-3.3h1.9l-3.4,3.2l3.5,4.1h-1.8l-2.7-3.2l-0.8,0.8v2.4H443.3z"/>
			<path fill="#FFFFFF" d="M457.3,262L457.3,262c-0.3,0.3-0.7,0.5-1.2,0.8c-0.5,0.2-1.1,0.3-1.6,0.3c-0.8,0-1.4-0.2-2-0.5
				c-0.6-0.3-1-0.8-1.4-1.3c-0.3-0.6-0.5-1.2-0.5-1.9c0-0.8,0.2-1.5,0.5-2.1c0.3-0.6,0.8-1,1.4-1.3c0.6-0.3,1.2-0.5,1.9-0.5
				c0.6,0,1.2,0.2,1.7,0.5s0.9,0.7,1.2,1.3c0.3,0.5,0.4,1.2,0.4,1.9l0,0.6H452c0.1,0.7,0.4,1.2,0.8,1.6s1,0.6,1.8,0.6
				c0.5,0,0.9-0.1,1.2-0.3s0.6-0.4,0.8-0.6L457.3,262z M454.3,256.8c-0.6,0-1,0.1-1.4,0.4c-0.4,0.3-0.7,0.7-0.8,1.3h4.1v-0.1
				c0-0.3-0.1-0.6-0.3-0.8c-0.2-0.2-0.4-0.4-0.7-0.6S454.6,256.8,454.3,256.8z"/>
			<path fill="#FFFFFF" d="M461.5,263h-1.4v-6h-1.5v-1.4h1.5v-1.9h1.4v1.9h1.7v1.4h-1.7V263z"/>
			<path fill="#FFFFFF" d="M357.9,277.1c0.1,0.2,0.3,0.4,0.5,0.7c0.2,0.2,0.4,0.4,0.7,0.6c0.3,0.2,0.6,0.2,0.9,0.2
				c0.3,0,0.6-0.1,0.8-0.2c0.3-0.1,0.5-0.4,0.7-0.6s0.3-0.6,0.3-1c0-0.4-0.1-0.8-0.2-1c-0.2-0.3-0.4-0.4-0.6-0.5s-0.5-0.2-0.8-0.2
				c-0.3,0-0.6,0-0.9,0.1c-0.3,0.1-0.6,0.2-0.8,0.3l-0.4-1.1l2.6-2.9h-3.5V270h5.6l0.3,0.6l-2.7,3c0.5,0,1,0.1,1.5,0.4
				c0.4,0.3,0.8,0.6,1.1,1.1c0.3,0.5,0.4,1,0.4,1.5c0,0.7-0.2,1.3-0.5,1.8c-0.3,0.5-0.7,0.9-1.3,1.2c-0.5,0.3-1.1,0.4-1.7,0.4
				c-0.6,0-1-0.1-1.4-0.3c-0.4-0.2-0.7-0.4-1-0.7c-0.3-0.3-0.6-0.7-0.8-1.1L357.9,277.1z"/>
			<path fill="#FFFFFF" d="M368.1,279.9c-0.8,0-1.4-0.2-2-0.7c-0.5-0.4-0.9-1-1.2-1.8s-0.4-1.6-0.4-2.6s0.1-1.8,0.4-2.6
				s0.7-1.4,1.2-1.8c0.5-0.4,1.2-0.7,2-0.7c0.8,0,1.5,0.2,2,0.7c0.5,0.4,0.9,1,1.2,1.8c0.3,0.8,0.4,1.6,0.4,2.6s-0.1,1.8-0.4,2.6
				c-0.3,0.8-0.7,1.4-1.2,1.8C369.5,279.7,368.9,279.9,368.1,279.9z M368.1,278.6c0.7,0,1.2-0.3,1.6-1c0.4-0.6,0.6-1.5,0.6-2.7
				c0-1.2-0.2-2.1-0.6-2.7c-0.4-0.6-0.9-1-1.6-1s-1.2,0.3-1.6,1c-0.4,0.6-0.6,1.5-0.6,2.7c0,1.2,0.2,2.1,0.6,2.7
				C366.9,278.3,367.4,278.6,368.1,278.6z"/>
			<path fill="#FFFFFF" d="M377.3,279.8v-10.4h1.4v6.3l3.3-3.3h1.9l-3.4,3.2l3.5,4.1h-1.8l-2.7-3.2l-0.8,0.8v2.4H377.3z"/>
			<path fill="#FFFFFF" d="M389,272.3c0.6,0,1.1,0.1,1.5,0.4s0.6,0.7,0.8,1.1c0.1-0.2,0.3-0.5,0.6-0.7c0.3-0.2,0.5-0.4,0.9-0.6
				s0.7-0.2,1.1-0.2c0.6,0,1.1,0.1,1.5,0.4s0.6,0.6,0.7,1.1s0.2,1,0.2,1.5v4.4h-1.5v-4.3c0-0.5-0.1-1-0.3-1.3s-0.6-0.5-1.2-0.5
				c-0.5,0-1,0.2-1.3,0.5s-0.5,0.8-0.5,1.2v4.4h-1.5v-4.4c0-0.5-0.1-1-0.3-1.3c-0.2-0.3-0.6-0.5-1.1-0.5c-0.4,0-0.7,0.1-1,0.2
				c-0.3,0.2-0.5,0.4-0.7,0.6c-0.2,0.3-0.2,0.5-0.2,0.9v4.4h-1.5v-7.4h1.5v1.2c0.2-0.3,0.5-0.6,0.9-0.9
				C388,272.5,388.5,272.3,389,272.3z"/>
			<path fill="#FFFFFF" d="M285.8,293c0-1.2,0.3-2.4,0.9-3.5c0.6-1.1,1.5-2,2.6-2.7l0.8,0.9c-1,0.7-1.7,1.5-2.2,2.5
				c-0.5,0.9-0.7,1.9-0.7,2.9s0.2,2,0.7,2.9c0.5,0.9,1.2,1.7,2.2,2.5l-0.8,0.9c-1.2-0.7-2.1-1.7-2.6-2.7
				C286,295.4,285.8,294.2,285.8,293z"/>
			<path fill="#FFFFFF" d="M298.7,295.4c-0.2,0.2-0.5,0.4-0.8,0.6c-0.3,0.2-0.8,0.4-1.2,0.5c-0.5,0.1-0.9,0.2-1.4,0.2
				c-0.9,0-1.7-0.2-2.4-0.6c-0.7-0.4-1.3-1-1.7-1.8c-0.4-0.8-0.6-1.6-0.6-2.7c0-0.7,0.1-1.4,0.4-2c0.3-0.6,0.6-1.1,1-1.6
				c0.4-0.4,1-0.8,1.5-1c0.6-0.2,1.2-0.4,1.8-0.4c0.5,0,1,0.1,1.5,0.2c0.5,0.2,0.9,0.4,1.2,0.6c0.4,0.3,0.6,0.5,0.8,0.8l-1,1
				c-0.3-0.4-0.7-0.6-1.1-0.9s-0.9-0.4-1.4-0.4c-0.6,0-1.1,0.1-1.6,0.4c-0.5,0.3-0.9,0.7-1.2,1.2c-0.3,0.5-0.5,1.1-0.5,1.9
				c0,0.8,0.2,1.4,0.5,2c0.3,0.5,0.7,0.9,1.2,1.2c0.5,0.3,1.1,0.4,1.7,0.4c0.6,0,1-0.1,1.5-0.3s0.8-0.5,1-0.7L298.7,295.4z"/>
			<path fill="#FFFFFF" d="M307.3,289.3v7.4h-1.5v-1.1c-0.2,0.3-0.6,0.6-1,0.9c-0.4,0.3-0.9,0.4-1.5,0.4c-0.6,0-1.2-0.2-1.7-0.5
				c-0.5-0.3-0.9-0.8-1.2-1.4c-0.3-0.6-0.4-1.2-0.4-2s0.2-1.4,0.5-2c0.3-0.6,0.7-1,1.3-1.3c0.5-0.3,1.2-0.5,1.8-0.5
				c0.5,0,1,0.1,1.4,0.3c0.4,0.2,0.7,0.5,0.9,0.8v-1H307.3z M303.6,295.4c0.4,0,0.8-0.1,1.2-0.3s0.6-0.5,0.8-0.9s0.3-0.8,0.3-1.3
				c0-0.5-0.1-0.9-0.3-1.3c-0.2-0.4-0.4-0.7-0.8-0.9c-0.3-0.2-0.7-0.3-1.2-0.3c-0.4,0-0.8,0.1-1.1,0.3c-0.3,0.2-0.6,0.5-0.8,0.9
				c-0.2,0.4-0.3,0.8-0.3,1.3c0,0.5,0.1,0.9,0.3,1.3c0.2,0.4,0.4,0.7,0.8,0.9S303.2,295.4,303.6,295.4z"/>
			<path fill="#FFFFFF" d="M313.1,289.1c0.7,0,1.2,0.1,1.5,0.4c0.4,0.3,0.6,0.6,0.8,1.1c0.1,0.5,0.2,1,0.2,1.5v4.5h-1.4v-4.4
				c0-0.4,0-0.7-0.1-1s-0.3-0.5-0.5-0.7c-0.2-0.2-0.5-0.2-0.9-0.2c-0.4,0-0.7,0.1-1,0.2c-0.3,0.2-0.5,0.4-0.7,0.6s-0.3,0.6-0.3,0.9
				v4.5h-1.4v-7.4h1.4v1.2c0.2-0.3,0.6-0.7,1-0.9C312.1,289.2,312.6,289.1,313.1,289.1z"/>
			<path fill="#FFFFFF" d="M318.5,292.9c0,0.5,0.1,0.9,0.3,1.3c0.2,0.4,0.5,0.7,0.9,0.9c0.4,0.2,0.7,0.3,1.2,0.3
				c0.5,0,0.9-0.1,1.2-0.4s0.6-0.5,0.8-0.8l0.8,1c-0.2,0.3-0.4,0.5-0.7,0.7c-0.3,0.2-0.7,0.4-1,0.5c-0.4,0.1-0.8,0.2-1.2,0.2
				c-0.7,0-1.3-0.2-1.8-0.5c-0.5-0.3-1-0.8-1.3-1.4c-0.3-0.6-0.5-1.2-0.5-1.9c0-0.7,0.2-1.4,0.5-2c0.3-0.6,0.7-1,1.3-1.4
				c0.5-0.3,1.1-0.5,1.8-0.5c0.7,0,1.3,0.1,1.8,0.4s0.9,0.6,1.2,1.1l-0.8,1c-0.2-0.3-0.5-0.6-0.9-0.8s-0.8-0.3-1.2-0.3
				c-0.4,0-0.8,0.1-1.2,0.3s-0.6,0.5-0.8,0.9C318.6,292,318.5,292.4,318.5,292.9z"/>
			<path fill="#FFFFFF" d="M331.4,295.6L331.4,295.6c-0.3,0.3-0.7,0.5-1.2,0.8c-0.5,0.2-1.1,0.3-1.6,0.3c-0.8,0-1.4-0.2-2-0.5
				c-0.6-0.3-1-0.8-1.4-1.3c-0.3-0.6-0.5-1.2-0.5-1.9c0-0.8,0.2-1.5,0.5-2.1c0.3-0.6,0.8-1,1.4-1.3c0.6-0.3,1.2-0.5,1.9-0.5
				c0.6,0,1.2,0.2,1.7,0.5s0.9,0.7,1.2,1.3c0.3,0.5,0.4,1.2,0.4,1.9l0,0.6h-5.6c0.1,0.7,0.4,1.2,0.8,1.6s1,0.6,1.8,0.6
				c0.5,0,0.9-0.1,1.2-0.3s0.6-0.4,0.8-0.6L331.4,295.6z M328.4,290.4c-0.6,0-1,0.1-1.4,0.4c-0.4,0.3-0.7,0.7-0.8,1.3h4.1V292
				c0-0.3-0.1-0.6-0.3-0.8c-0.2-0.2-0.4-0.4-0.7-0.6S328.7,290.4,328.4,290.4z"/>
			<path fill="#FFFFFF" d="M333.3,296.6v-10.4h1.4v10.4H333.3z"/>
			<path fill="#FFFFFF" d="M336.8,296.6v-10.4h1.4v10.4H336.8z"/>
			<path fill="#FFFFFF" d="M346.5,295.6L346.5,295.6c-0.3,0.3-0.7,0.5-1.2,0.8c-0.5,0.2-1.1,0.3-1.6,0.3c-0.8,0-1.4-0.2-2-0.5
				c-0.6-0.3-1-0.8-1.4-1.3c-0.3-0.6-0.5-1.2-0.5-1.9c0-0.8,0.2-1.5,0.5-2.1c0.3-0.6,0.8-1,1.4-1.3c0.6-0.3,1.2-0.5,1.9-0.5
				c0.6,0,1.2,0.2,1.7,0.5s0.9,0.7,1.2,1.3c0.3,0.5,0.4,1.2,0.4,1.9l0,0.6h-5.6c0.1,0.7,0.4,1.2,0.8,1.6s1,0.6,1.8,0.6
				c0.5,0,0.9-0.1,1.2-0.3s0.6-0.4,0.8-0.6L346.5,295.6z M343.5,290.4c-0.6,0-1,0.1-1.4,0.4c-0.4,0.3-0.7,0.7-0.8,1.3h4.1V292
				c0-0.3-0.1-0.6-0.3-0.8c-0.2-0.2-0.4-0.4-0.7-0.6S343.8,290.4,343.5,290.4z"/>
			<path fill="#FFFFFF" d="M355.2,286.2v10.4h-1.4v-1c-0.2,0.3-0.5,0.6-1,0.8s-0.9,0.4-1.4,0.4c-0.7,0-1.3-0.2-1.8-0.5
				c-0.5-0.3-1-0.8-1.3-1.4c-0.3-0.6-0.5-1.2-0.5-2c0-0.7,0.2-1.4,0.5-2c0.3-0.6,0.7-1,1.2-1.4c0.5-0.3,1.1-0.5,1.8-0.5
				c0.5,0,1,0.1,1.4,0.3c0.4,0.2,0.8,0.5,1,0.8v-3.9H355.2z M351.6,295.5c0.4,0,0.8-0.1,1.2-0.3s0.6-0.5,0.8-0.9
				c0.2-0.4,0.3-0.8,0.3-1.3c0-0.5-0.1-0.9-0.3-1.3c-0.2-0.4-0.4-0.7-0.8-0.9c-0.3-0.2-0.7-0.3-1.2-0.3c-0.4,0-0.8,0.1-1.2,0.3
				c-0.3,0.2-0.6,0.5-0.8,0.9c-0.2,0.4-0.3,0.8-0.3,1.3c0,0.5,0.1,0.9,0.3,1.3c0.2,0.4,0.5,0.7,0.8,0.9S351.2,295.5,351.6,295.5z"/>
			<path fill="#FFFFFF" d="M359.3,296.5c0,0.4-0.1,0.8-0.3,1.1c-0.2,0.3-0.4,0.6-0.7,0.9c-0.3,0.3-0.6,0.4-0.9,0.6l-0.5-0.6
				c0.3-0.2,0.6-0.4,0.8-0.6s0.3-0.5,0.3-0.6c0-0.1,0-0.3-0.1-0.4s-0.2-0.2-0.3-0.3c-0.1-0.1-0.2-0.2-0.3-0.3
				c-0.1-0.1-0.1-0.3-0.1-0.5c0-0.2,0.1-0.4,0.3-0.5s0.4-0.2,0.6-0.2c0.3,0,0.6,0.1,0.9,0.4S359.3,296,359.3,296.5z"/>
			<path fill="#FFFFFF" d="M371.9,292.9c0,0.7-0.2,1.4-0.5,2c-0.3,0.6-0.8,1-1.3,1.4c-0.6,0.3-1.2,0.5-1.9,0.5
				c-0.7,0-1.3-0.2-1.9-0.5c-0.6-0.3-1-0.8-1.4-1.4c-0.3-0.6-0.5-1.2-0.5-2c0-0.7,0.2-1.4,0.5-2c0.3-0.6,0.8-1,1.4-1.4
				c0.6-0.3,1.2-0.5,1.9-0.5c0.7,0,1.3,0.2,1.9,0.5c0.6,0.3,1,0.8,1.3,1.4C371.8,291.5,371.9,292.2,371.9,292.9z M370.5,292.9
				c0-0.5-0.1-0.9-0.3-1.3c-0.2-0.4-0.5-0.7-0.8-0.9c-0.3-0.2-0.7-0.3-1.2-0.3c-0.4,0-0.8,0.1-1.2,0.3c-0.3,0.2-0.6,0.5-0.8,0.9
				c-0.2,0.4-0.3,0.8-0.3,1.3c0,0.5,0.1,0.9,0.3,1.3c0.2,0.4,0.5,0.7,0.8,0.9c0.4,0.2,0.7,0.3,1.2,0.3c0.4,0,0.8-0.1,1.2-0.3
				c0.3-0.2,0.6-0.5,0.8-0.9C370.4,293.8,370.5,293.4,370.5,292.9z"/>
			<path fill="#FFFFFF" d="M377.6,290.8c-0.1,0-0.2-0.1-0.3-0.1c-0.1,0-0.3,0-0.4,0c-0.3,0-0.6,0.1-0.9,0.2
				c-0.3,0.2-0.5,0.4-0.7,0.7c-0.2,0.3-0.3,0.6-0.3,1v4.1h-1.5v-7.4h1.5v1.4c0.2-0.4,0.5-0.8,0.9-1.1c0.4-0.3,0.9-0.4,1.3-0.4
				c0.3,0,0.6,0,0.8,0.1L377.6,290.8z"/>
			<path fill="#FFFFFF" d="M380.1,287.7c-0.3,0-0.6-0.1-0.7-0.3c-0.2-0.2-0.2-0.4-0.2-0.7c0-0.2,0.1-0.4,0.2-0.6
				c0.2-0.2,0.4-0.3,0.7-0.3c0.3,0,0.6,0.1,0.7,0.3c0.2,0.2,0.2,0.4,0.2,0.7c0,0.2-0.1,0.4-0.2,0.6
				C380.7,287.6,380.4,287.7,380.1,287.7z M380.9,296.6h-1.4v-7.4h1.4V296.6z"/>
			<path fill="#FFFFFF" d="M384,297.8c0.3,0.2,0.6,0.4,1.1,0.5s0.8,0.2,1.2,0.2c0.8,0,1.3-0.2,1.7-0.6s0.6-0.9,0.6-1.7v-0.9
				c-0.1,0.2-0.3,0.4-0.6,0.6c-0.2,0.2-0.5,0.4-0.9,0.5c-0.3,0.1-0.7,0.2-1,0.2c-0.7,0-1.3-0.2-1.8-0.5c-0.6-0.3-1-0.8-1.3-1.4
				s-0.5-1.2-0.5-2c0-0.7,0.2-1.4,0.5-2c0.3-0.6,0.7-1,1.3-1.4c0.5-0.3,1.2-0.5,1.8-0.5c0.6,0,1.1,0.1,1.5,0.4
				c0.4,0.2,0.8,0.5,1,0.8v-1h1.4v6.9c0,0.9-0.2,1.6-0.5,2.1c-0.3,0.5-0.8,0.9-1.4,1.2c-0.6,0.2-1.2,0.4-1.9,0.4
				c-0.5,0-1-0.1-1.6-0.2c-0.5-0.2-0.9-0.4-1.3-0.6L384,297.8z M386.4,290.4c-0.4,0-0.8,0.1-1.2,0.3c-0.4,0.2-0.6,0.5-0.8,0.9
				c-0.2,0.4-0.3,0.8-0.3,1.3s0.1,0.9,0.3,1.3c0.2,0.4,0.5,0.7,0.8,0.9c0.3,0.2,0.7,0.3,1.2,0.3c0.5,0,0.9-0.1,1.2-0.3
				c0.3-0.2,0.6-0.5,0.8-0.9c0.2-0.4,0.3-0.8,0.3-1.3c0-0.5-0.1-0.9-0.3-1.3c-0.2-0.4-0.5-0.7-0.8-0.9
				C387.3,290.5,386.8,290.4,386.4,290.4z"/>
			<path fill="#FFFFFF" d="M393.1,287.7c-0.3,0-0.6-0.1-0.7-0.3c-0.2-0.2-0.2-0.4-0.2-0.7c0-0.2,0.1-0.4,0.2-0.6
				c0.2-0.2,0.4-0.3,0.7-0.3c0.3,0,0.6,0.1,0.7,0.3c0.2,0.2,0.2,0.4,0.2,0.7c0,0.2-0.1,0.4-0.2,0.6
				C393.7,287.6,393.4,287.7,393.1,287.7z M393.8,296.6h-1.4v-7.4h1.4V296.6z"/>
			<path fill="#FFFFFF" d="M399.9,289.1c0.7,0,1.2,0.1,1.5,0.4c0.4,0.3,0.6,0.6,0.8,1.1c0.1,0.5,0.2,1,0.2,1.5v4.5h-1.4v-4.4
				c0-0.4,0-0.7-0.1-1s-0.3-0.5-0.5-0.7c-0.2-0.2-0.5-0.2-0.9-0.2c-0.4,0-0.7,0.1-1,0.2c-0.3,0.2-0.5,0.4-0.7,0.6s-0.3,0.6-0.3,0.9
				v4.5H396v-7.4h1.4v1.2c0.2-0.3,0.6-0.7,1-0.9C398.9,289.2,399.3,289.1,399.9,289.1z"/>
			<path fill="#FFFFFF" d="M411.2,289.3v7.4h-1.5v-1.1c-0.2,0.3-0.6,0.6-1,0.9c-0.4,0.3-0.9,0.4-1.5,0.4c-0.6,0-1.2-0.2-1.7-0.5
				c-0.5-0.3-0.9-0.8-1.2-1.4c-0.3-0.6-0.4-1.2-0.4-2s0.2-1.4,0.5-2c0.3-0.6,0.7-1,1.3-1.3c0.5-0.3,1.2-0.5,1.8-0.5
				c0.5,0,1,0.1,1.4,0.3c0.4,0.2,0.7,0.5,0.9,0.8v-1H411.2z M407.5,295.4c0.4,0,0.8-0.1,1.2-0.3s0.6-0.5,0.8-0.9s0.3-0.8,0.3-1.3
				c0-0.5-0.1-0.9-0.3-1.3c-0.2-0.4-0.4-0.7-0.8-0.9c-0.3-0.2-0.7-0.3-1.2-0.3c-0.4,0-0.8,0.1-1.1,0.3c-0.3,0.2-0.6,0.5-0.8,0.9
				c-0.2,0.4-0.3,0.8-0.3,1.3c0,0.5,0.1,0.9,0.3,1.3c0.2,0.4,0.4,0.7,0.8,0.9S407.1,295.4,407.5,295.4z"/>
			<path fill="#FFFFFF" d="M413.2,296.6v-10.4h1.4v10.4H413.2z"/>
			<path fill="#FFFFFF" d="M416.7,296.6v-10.4h1.4v10.4H416.7z"/>
			<path fill="#FFFFFF" d="M421.2,299.8l1.2-2.8l0-0.1l-3.4-7.7h1.7l2.3,5.4c0,0.1,0.1,0.1,0.1,0.2s0.1,0.2,0.1,0.3
				c0-0.1,0.1-0.2,0.1-0.3c0-0.1,0.1-0.2,0.1-0.3l1.9-5.3h1.7l-3,7.4l-1.2,3.2H421.2z"/>
			<path fill="#FFFFFF" d="M438.3,295.1v1.5h-5.9l-0.5-1.1l3-3.4c0.4-0.4,0.7-0.9,1-1.3c0.3-0.4,0.5-0.9,0.5-1.3
				c0-0.5-0.1-0.8-0.4-1.1c-0.3-0.2-0.6-0.4-1.1-0.4c-0.2,0-0.5,0.1-0.7,0.2c-0.3,0.1-0.5,0.3-0.7,0.6s-0.4,0.6-0.6,1.1l-1.2-0.7
				c0.3-0.9,0.7-1.5,1.3-1.9c0.6-0.4,1.3-0.6,2.1-0.6c0.5,0,1,0.1,1.4,0.3c0.4,0.2,0.8,0.5,1,0.9c0.3,0.4,0.4,0.9,0.4,1.4
				c0,0.6-0.2,1.3-0.6,1.9c-0.4,0.6-0.9,1.3-1.4,1.9l-1.8,2H438.3z"/>
			<path fill="#FFFFFF" d="M443,296.7c-0.8,0-1.4-0.2-2-0.7c-0.5-0.4-0.9-1-1.2-1.8s-0.4-1.6-0.4-2.6s0.1-1.8,0.4-2.6
				s0.7-1.4,1.2-1.8c0.5-0.4,1.2-0.7,2-0.7c0.8,0,1.5,0.2,2,0.7c0.5,0.4,0.9,1,1.2,1.8c0.3,0.8,0.4,1.6,0.4,2.6s-0.1,1.8-0.4,2.6
				c-0.3,0.8-0.7,1.4-1.2,1.8C444.4,296.5,443.7,296.7,443,296.7z M443,295.4c0.7,0,1.2-0.3,1.6-1c0.4-0.6,0.6-1.5,0.6-2.7
				c0-1.2-0.2-2.1-0.6-2.7c-0.4-0.6-0.9-1-1.6-1s-1.2,0.3-1.6,1c-0.4,0.6-0.6,1.5-0.6,2.7c0,1.2,0.2,2.1,0.6,2.7
				C441.8,295.1,442.3,295.4,443,295.4z"/>
			<path fill="#FFFFFF" d="M454.4,295.1v1.5h-5.9l-0.5-1.1l3-3.4c0.4-0.4,0.7-0.9,1-1.3c0.3-0.4,0.5-0.9,0.5-1.3
				c0-0.5-0.1-0.8-0.4-1.1c-0.3-0.2-0.6-0.4-1.1-0.4c-0.2,0-0.5,0.1-0.7,0.2c-0.3,0.1-0.5,0.3-0.7,0.6s-0.4,0.6-0.6,1.1l-1.2-0.7
				c0.3-0.9,0.7-1.5,1.3-1.9c0.6-0.4,1.3-0.6,2.1-0.6c0.5,0,1,0.1,1.4,0.3c0.4,0.2,0.8,0.5,1,0.9c0.3,0.4,0.4,0.9,0.4,1.4
				c0,0.6-0.2,1.3-0.6,1.9c-0.4,0.6-0.9,1.3-1.4,1.9l-1.8,2H454.4z"/>
			<path fill="#FFFFFF" d="M459.5,296.6v-2.7h-3.9l-0.6-1.3l4.8-5.9h1.2v5.8h1.7v1.4H461v2.7H459.5z M456.8,292.6h2.7v-3.3
				L456.8,292.6z"/>
			<path fill="#FFFFFF" d="M467.8,293c0,1.2-0.3,2.4-0.9,3.5s-1.5,2-2.6,2.7l-0.8-0.9c1-0.7,1.7-1.5,2.2-2.5
				c0.5-0.9,0.7-1.9,0.7-2.9s-0.2-2-0.7-2.9c-0.5-0.9-1.2-1.7-2.2-2.5l0.8-0.9c1.2,0.7,2.1,1.7,2.6,2.7
				C467.5,290.6,467.8,291.7,467.8,293z"/>
		</g>
	</g>
</g>
<g id="Scratch" display="none">
</g>
</svg>
